<svg xmlns="http://www.w3.org/2000/svg" xmlns:xlink="http://www.w3.org/1999/xlink" width="1366" zoomAndPan="magnify" viewBox="0 0 1024.5 576" height="768" preserveAspectRatio="xMidYMid meet" version="1.0"><defs><filter x="0%" y="0%" width="100%" height="100%" id="647dbc620c"><feColorMatrix values="0 0 0 0 1 0 0 0 0 1 0 0 0 0 1 0 0 0 1 0" color-interpolation-filters="sRGB"/></filter><clipPath id="2e9284c778"><path d="M 0 0.140625 L 1024 0.140625 L 1024 575.859375 L 0 575.859375 Z M 0 0.140625 " clip-rule="nonzero"/></clipPath><clipPath id="0d339d5d5a"><path d="M 252 5 L 866 5 L 866 575.859375 L 252 575.859375 Z M 252 5 " clip-rule="nonzero"/></clipPath><clipPath id="4b753d5c20"><path d="M 291 328 L 477 328 L 477 575.859375 L 291 575.859375 Z M 291 328 " clip-rule="nonzero"/></clipPath><mask id="e6bcb8ce5a"><g filter="url(#647dbc620c)"><rect x="-102.45" width="1229.4" fill="#000000" y="-57.6" height="691.2" fill-opacity="0.45"/></g></mask><clipPath id="2d910810ff"><rect x="0" width="96" y="0" height="96"/></clipPath><mask id="87e8bede3d"><g filter="url(#647dbc620c)"><rect x="-102.45" width="1229.4" fill="#000000" y="-57.6" height="691.2" fill-opacity="0.5"/></g></mask><clipPath id="0dad0f8099"><path d="M 54 97 L 86 97 L 86 113.511719 L 54 113.511719 Z M 54 97 " clip-rule="nonzero"/></clipPath><clipPath id="78847c8c4a"><rect x="0" width="139" y="0" height="114"/></clipPath></defs><g clip-path="url(#2e9284c778)"><path fill="#ffffff" d="M 0 0.140625 L 1024 0.140625 L 1024 575.859375 L 0 575.859375 Z M 0 0.140625 " fill-opacity="1" fill-rule="nonzero"/><path fill="#ffffff" d="M 0 0.140625 L 1024 0.140625 L 1024 575.859375 L 0 575.859375 Z M 0 0.140625 " fill-opacity="1" fill-rule="nonzero"/></g><g clip-path="url(#0d339d5d5a)"><path fill="#d6e3e8" d="M 864 365.066406 C 863.332031 370.628906 862.417969 376.1875 861.328125 381.640625 C 859.039062 394.0625 855.628906 406.132812 851.160156 417.851562 C 849.679688 421.792969 848.132812 425.734375 846.476562 429.570312 C 845.105469 432.492188 843.734375 435.519531 842.292969 438.40625 C 842.292969 438.441406 842.292969 438.441406 842.292969 438.441406 C 840.53125 441.921875 838.773438 445.300781 836.835938 448.644531 C 834.480469 452.902344 831.875 457.125 829.167969 461.277344 C 824.660156 468.105469 819.769531 474.828125 814.421875 481.335938 L 814.421875 481.371094 C 805.238281 492.632812 794.824219 503.261719 783.105469 513.359375 C 782.753906 513.675781 782.4375 513.921875 782.085938 514.203125 L 782.050781 514.238281 C 756.679688 535.777344 734.230469 543.027344 712.238281 543.625 L 712.203125 543.625 C 707.453125 543.765625 702.773438 543.589844 698.058594 543.167969 C 690.210938 542.460938 682.363281 541.160156 674.304688 539.542969 C 649.601562 534.472656 623.742188 526.628906 593.375 526.523438 C 591.894531 526.488281 590.453125 526.523438 588.976562 526.523438 C 588.730469 526.523438 588.484375 526.558594 588.164062 526.558594 C 584.261719 526.664062 580.25 526.875 576.203125 527.261719 C 569.339844 527.859375 562.199219 528.984375 554.773438 530.640625 C 550.339844 531.589844 545.730469 532.820312 541.085938 534.226562 C 537.355469 535.355469 533.625 536.65625 529.683594 538.0625 C 528.523438 538.523438 527.328125 538.910156 526.164062 539.4375 C 525.917969 539.542969 525.777344 539.578125 525.496094 539.683594 C 519.128906 542.214844 512.933594 544.539062 506.707031 546.757812 C 504.417969 547.601562 502.097656 548.480469 499.84375 549.21875 C 494.601562 551.15625 489.5 552.84375 484.433594 554.460938 C 481.863281 555.308594 479.332031 556.117188 476.796875 556.890625 C 448.222656 565.96875 422.152344 571.882812 398.539062 574.273438 C 388.441406 575.332031 378.835938 575.648438 369.6875 575.296875 C 368.734375 575.296875 367.820312 575.191406 366.90625 575.085938 C 364.441406 575.050781 361.945312 574.839844 359.585938 574.59375 C 357.828125 574.378906 356.066406 574.203125 354.273438 573.921875 C 352.269531 573.675781 350.226562 573.359375 348.257812 572.972656 C 347.128906 572.761719 346.039062 572.515625 344.914062 572.269531 C 343.292969 572.023438 341.675781 571.601562 340.058594 571.214844 C 320.105469 566.109375 303.144531 556.363281 289.175781 541.195312 C 275.347656 525.992188 264.507812 505.476562 257.050781 478.804688 C 238.402344 413.136719 285.445312 378.933594 314.898438 334.875 C 318.03125 330.125 321.019531 325.335938 323.625 320.339844 C 328.726562 310.734375 332.703125 300.492188 334.78125 289.265625 C 341.394531 254.324219 312.011719 219.097656 307.402344 182.183594 C 306.136719 171.625 306.101562 160.714844 307.613281 149.699219 C 308.105469 145.867188 308.8125 142.066406 309.726562 138.230469 C 318.066406 101.558594 343.117188 65.523438 389.777344 43.601562 C 400.546875 38.535156 411.347656 34.066406 422.152344 30.019531 C 423.628906 29.417969 425.175781 28.855469 426.691406 28.363281 C 427.148438 28.222656 427.605469 28.046875 428.0625 27.90625 C 428.449219 27.765625 428.835938 27.589844 429.222656 27.519531 C 432.601562 26.253906 436.085938 25.089844 439.53125 24.035156 C 506.320312 2.429688 573.070312 0.175781 632.855469 15.90625 C 637.183594 16.960938 641.476562 18.230469 645.769531 19.53125 C 648.054688 20.199219 650.273438 20.9375 652.523438 21.714844 C 678.246094 30.335938 702.386719 42.511719 724.238281 58.101562 C 728.316406 60.878906 732.222656 63.800781 736.09375 66.828125 C 758.507812 84.5625 778.425781 106.03125 795.035156 131.015625 C 799.1875 137.242188 803.128906 143.4375 806.890625 149.664062 C 813.296875 160.257812 819.277344 170.886719 824.625 181.441406 C 857.316406 245.277344 870.863281 307.882812 864 365.066406 Z M 864 365.066406 " fill-opacity="1" fill-rule="nonzero"/></g><path fill="#d2e2ed" d="M 162.535156 289.828125 C 167.25 328.679688 200.011719 356.65625 235.691406 352.328125 C 271.40625 348 296.496094 312.984375 291.78125 274.136719 C 287.066406 235.285156 254.269531 207.273438 218.589844 211.636719 C 182.910156 215.964844 157.820312 250.980469 162.535156 289.828125 Z M 162.535156 289.828125 " fill-opacity="1" fill-rule="nonzero"/><path fill="#4581c5" d="M 236.640625 147.484375 C 266.621094 147.484375 291.007812 167.332031 291.007812 191.753906 C 291.007812 212.023438 273.800781 229.300781 249.976562 234.265625 C 251.03125 237.675781 255.570312 251.578125 254.902344 252.070312 C 254.023438 252.773438 249.941406 249.5 248.992188 248.902344 C 248.992188 248.902344 227.949219 235.496094 227.492188 235.214844 C 201.277344 231.589844 182.3125 213.5 182.3125 191.789062 C 182.3125 167.332031 206.660156 147.484375 236.640625 147.484375 Z M 236.640625 147.484375 " fill-opacity="1" fill-rule="nonzero"/><path fill="#ffffff" d="M 214.683594 192.316406 C 214.683594 195.90625 211.761719 198.828125 208.175781 198.828125 C 204.585938 198.828125 201.699219 195.90625 201.699219 192.316406 C 201.699219 188.726562 204.585938 185.804688 208.175781 185.804688 C 211.761719 185.84375 214.683594 188.726562 214.683594 192.316406 Z M 214.683594 192.316406 " fill-opacity="1" fill-rule="nonzero"/><path fill="#ffffff" d="M 242.410156 192.316406 C 242.410156 195.90625 239.492188 198.828125 235.902344 198.828125 C 232.3125 198.828125 229.425781 195.90625 229.425781 192.316406 C 229.425781 188.726562 232.3125 185.804688 235.902344 185.804688 C 239.492188 185.84375 242.410156 188.726562 242.410156 192.316406 Z M 242.410156 192.316406 " fill-opacity="1" fill-rule="nonzero"/><path fill="#ffffff" d="M 271.054688 192.316406 C 271.054688 195.90625 268.167969 198.828125 264.542969 198.828125 C 260.957031 198.828125 258.035156 195.90625 258.035156 192.316406 C 258.035156 188.726562 260.921875 185.804688 264.542969 185.804688 C 268.167969 185.84375 271.054688 188.726562 271.054688 192.316406 Z M 271.054688 192.316406 " fill-opacity="1" fill-rule="nonzero"/><path fill="#334d5c" d="M 515.082031 196.257812 C 515.011719 196.257812 514.976562 196.257812 514.90625 196.257812 C 514.203125 196.152344 513.707031 195.519531 513.8125 194.851562 L 513.917969 194.113281 C 514.023438 193.40625 514.660156 192.914062 515.328125 193.019531 C 516.03125 193.125 516.523438 193.757812 516.417969 194.429688 L 516.3125 195.167969 C 516.242188 195.800781 515.679688 196.257812 515.082031 196.257812 Z M 515.082031 196.257812 " fill-opacity="1" fill-rule="nonzero"/><path fill="#334d5c" d="M 507.09375 257.699219 C 507.023438 257.699219 506.988281 257.699219 506.917969 257.699219 C 506.214844 257.59375 505.757812 256.960938 505.828125 256.292969 L 506.039062 254.710938 C 506.144531 254.007812 506.777344 253.546875 507.445312 253.617188 C 508.148438 253.722656 508.640625 254.359375 508.535156 255.027344 L 508.324219 256.609375 C 508.253906 257.242188 507.726562 257.699219 507.09375 257.699219 Z M 507.972656 250.875 C 507.902344 250.875 507.867188 250.875 507.796875 250.875 C 507.09375 250.769531 506.601562 250.136719 506.707031 249.464844 L 506.917969 247.882812 C 507.023438 247.179688 507.65625 246.6875 508.324219 246.792969 C 509.027344 246.898438 509.484375 247.53125 509.414062 248.199219 L 509.203125 249.78125 C 509.132812 250.417969 508.605469 250.875 507.972656 250.875 Z M 508.851562 244.046875 C 508.78125 244.046875 508.746094 244.046875 508.675781 244.046875 C 507.972656 243.941406 507.515625 243.308594 507.585938 242.640625 L 507.796875 241.054688 C 507.902344 240.351562 508.535156 239.859375 509.203125 239.964844 C 509.910156 240.070312 510.402344 240.703125 510.296875 241.371094 L 510.085938 242.957031 C 510.050781 243.589844 509.484375 244.046875 508.851562 244.046875 Z M 509.769531 237.21875 C 509.695312 237.21875 509.660156 237.21875 509.589844 237.21875 C 508.886719 237.113281 508.429688 236.480469 508.5 235.8125 L 508.710938 234.230469 C 508.816406 233.523438 509.449219 233.066406 510.121094 233.136719 C 510.824219 233.242188 511.316406 233.875 511.210938 234.546875 L 511 236.128906 C 510.929688 236.761719 510.367188 237.21875 509.769531 237.21875 Z M 510.648438 230.394531 C 510.578125 230.394531 510.542969 230.394531 510.472656 230.394531 C 509.769531 230.289062 509.273438 229.652344 509.378906 228.984375 L 509.589844 227.402344 C 509.695312 226.699219 510.332031 226.207031 511 226.3125 C 511.703125 226.417969 512.195312 227.050781 512.089844 227.71875 L 511.878906 229.300781 C 511.808594 229.9375 511.28125 230.394531 510.648438 230.394531 Z M 511.527344 223.566406 C 511.457031 223.566406 511.421875 223.566406 511.351562 223.566406 C 510.648438 223.460938 510.15625 222.828125 510.261719 222.160156 L 510.472656 220.574219 C 510.578125 219.871094 511.210938 219.414062 511.878906 219.484375 C 512.582031 219.589844 513.074219 220.222656 512.96875 220.890625 L 512.757812 222.476562 C 512.6875 223.109375 512.160156 223.566406 511.527344 223.566406 Z M 512.40625 216.738281 C 512.335938 216.738281 512.300781 216.738281 512.230469 216.738281 C 511.527344 216.632812 511.035156 216 511.140625 215.332031 L 511.351562 213.746094 C 511.457031 213.042969 512.089844 212.550781 512.757812 212.65625 C 513.460938 212.761719 513.953125 213.394531 513.847656 214.066406 L 513.636719 215.648438 C 513.566406 216.28125 513.039062 216.738281 512.40625 216.738281 Z M 513.285156 209.914062 C 513.214844 209.914062 513.179688 209.914062 513.109375 209.914062 C 512.40625 209.804688 511.949219 209.171875 512.019531 208.503906 L 512.230469 206.921875 C 512.335938 206.21875 512.96875 205.722656 513.636719 205.828125 C 514.34375 205.9375 514.835938 206.570312 514.730469 207.238281 L 514.519531 208.820312 C 514.449219 209.453125 513.917969 209.914062 513.285156 209.914062 Z M 514.167969 203.085938 C 514.09375 203.085938 514.058594 203.085938 513.988281 203.085938 C 513.285156 202.980469 512.828125 202.347656 512.898438 201.675781 L 513.109375 200.09375 C 513.214844 199.390625 513.847656 198.898438 514.519531 199.003906 C 515.222656 199.109375 515.714844 199.742188 515.609375 200.410156 L 515.398438 201.996094 C 515.363281 202.628906 514.800781 203.085938 514.167969 203.085938 Z M 514.167969 203.085938 " fill-opacity="1" fill-rule="nonzero"/><path fill="#334d5c" d="M 506.320312 263.71875 C 506.25 263.71875 506.214844 263.71875 506.144531 263.71875 C 505.441406 263.613281 504.945312 263.015625 505.050781 262.3125 L 505.15625 261.570312 C 505.226562 260.867188 505.863281 260.375 506.566406 260.480469 C 507.269531 260.585938 507.761719 261.183594 507.65625 261.886719 L 507.550781 262.628906 C 507.480469 263.261719 506.953125 263.71875 506.320312 263.71875 Z M 506.320312 263.71875 " fill-opacity="1" fill-rule="nonzero"/><path fill="#bcb3bd" d="M 270.140625 326.289062 C 270.140625 326.289062 253.601562 316.714844 234.847656 329.242188 C 216.089844 341.734375 211.339844 353.875 216.089844 371.507812 C 220.875 389.136719 238.859375 428.832031 247.339844 449.769531 C 252.335938 462.121094 269.824219 502.238281 283.371094 533.03125 C 304.058594 566.390625 348.257812 573.042969 348.257812 573.042969 L 321.9375 501.570312 Z M 270.140625 326.289062 " fill-opacity="1" fill-rule="nonzero"/><path fill="#a098a0" d="M 303.566406 368.550781 L 282.421875 336.105469 C 275.734375 325.863281 262.222656 322.699219 251.667969 328.855469 L 243.644531 333.570312 C 233.296875 339.625 229.390625 352.644531 234.671875 363.414062 L 335.449219 569.875 L 348.714844 573.183594 Z M 303.566406 368.550781 " fill-opacity="1" fill-rule="nonzero"/><path fill="#f9d6bd" d="M 829.132812 461.3125 C 824.625 468.140625 819.734375 474.863281 814.386719 481.371094 L 814.386719 481.40625 L 674.269531 539.613281 C 649.566406 534.546875 623.707031 526.699219 593.339844 526.59375 C 591.859375 526.558594 590.417969 526.59375 588.941406 526.59375 C 588.695312 526.59375 588.445312 526.628906 588.128906 526.628906 C 584.226562 526.734375 580.214844 526.945312 576.167969 527.332031 L 417.117188 407.859375 L 577.328125 379.917969 Z M 829.132812 461.3125 " fill-opacity="1" fill-rule="nonzero"/><path fill="#e5bba5" d="M 424.789062 413.628906 L 576.167969 527.332031 C 569.304688 527.929688 562.160156 529.054688 554.738281 530.710938 L 413.460938 416.691406 Z M 424.789062 413.628906 " fill-opacity="1" fill-rule="nonzero"/><path fill="#e5bba5" d="M 814.386719 481.40625 C 805.203125 492.667969 794.789062 503.296875 783.070312 513.394531 C 782.71875 513.710938 782.402344 513.957031 782.050781 514.238281 L 782.015625 514.273438 L 712.203125 543.660156 L 712.167969 543.660156 C 707.417969 543.800781 702.738281 543.625 698.023438 543.203125 C 690.175781 542.5 682.328125 541.195312 674.269531 539.578125 Z M 814.386719 481.40625 " fill-opacity="1" fill-rule="nonzero"/><path fill="#f9c9ae" d="M 814.386719 481.371094 C 805.238281 492.632812 794.789062 503.296875 783.070312 513.394531 C 782.71875 513.710938 782.367188 513.992188 782.015625 514.308594 L 712.203125 543.695312 C 707.453125 543.835938 702.703125 543.660156 698.023438 543.238281 C 690.175781 542.535156 682.328125 541.230469 674.269531 539.613281 Z M 814.386719 481.371094 " fill-opacity="1" fill-rule="nonzero"/><path fill="#4e4b63" d="M 658.1875 483.589844 L 704.496094 464.09375 L 585.070312 414.121094 L 547.945312 423.308594 L 551.253906 431.015625 Z M 658.1875 483.589844 " fill-opacity="1" fill-rule="nonzero"/><path fill="#322f41" d="M 704.496094 464.09375 L 704.496094 472.714844 L 658.1875 483.589844 Z M 704.496094 464.09375 " fill-opacity="1" fill-rule="nonzero"/><path fill="#322f41" d="M 704.988281 426.546875 C 723.25 431.71875 729.65625 439.742188 719.308594 444.492188 C 708.929688 449.242188 685.707031 448.890625 667.445312 443.753906 C 649.179688 438.582031 642.777344 430.558594 653.121094 425.804688 C 663.503906 421.054688 686.726562 421.40625 704.988281 426.546875 Z M 704.988281 426.546875 " fill-opacity="1" fill-rule="nonzero"/><path fill="#322f41" d="M 672.546875 402.898438 L 679.898438 423.484375 L 705.621094 428.621094 L 697.527344 406.59375 Z M 672.546875 402.898438 " fill-opacity="1" fill-rule="nonzero"/><path fill="#322f41" d="M 600.585938 387.34375 L 778.390625 430.3125 C 784.722656 431.859375 791.023438 427.601562 792.007812 421.160156 L 817.34375 253.125 C 817.90625 249.324219 814.949219 245.875 811.113281 245.910156 L 611.460938 247.109375 C 608.046875 247.144531 605.230469 249.710938 604.878906 253.089844 L 592.175781 375.414062 C 591.578125 380.9375 595.167969 386.039062 600.585938 387.34375 Z M 600.585938 387.34375 " fill-opacity="1" fill-rule="nonzero"/><path fill="#8ed5a8" d="M 785.003906 408.527344 L 808.160156 254.746094 L 613.429688 255.90625 L 601.605469 368.375 Z M 785.003906 408.527344 " fill-opacity="1" fill-rule="nonzero"/><path fill="#322f41" d="M 663.925781 508.328125 C 663.925781 508.328125 669.203125 510.652344 678.246094 509.59375 C 687.324219 508.503906 699.5 503.859375 701.75 502.453125 C 704.003906 501.007812 705.691406 497.699219 703.933594 496.363281 C 702.171875 495.027344 684.613281 492.175781 682.46875 493.125 C 680.320312 494.074219 674.234375 496.574219 673.460938 497.3125 C 672.6875 498.015625 669.273438 503.085938 669.167969 503.578125 C 669.0625 504.035156 663.925781 508.328125 663.925781 508.328125 Z M 663.925781 508.328125 " fill-opacity="1" fill-rule="nonzero"/><path fill="#4e4b63" d="M 658.1875 503.402344 C 658.683594 506.605469 663.328125 509.242188 667.867188 508.539062 C 672.40625 507.835938 684.332031 498.261719 689.226562 497.3125 C 694.117188 496.363281 701.398438 496.117188 703.546875 496.609375 C 705.691406 497.101562 699.007812 490.027344 694.820312 488.621094 C 690.632812 487.214844 679.195312 482.886719 672.757812 484.433594 C 666.316406 485.980469 656.535156 492.773438 658.1875 503.402344 Z M 658.1875 503.402344 " fill-opacity="1" fill-rule="nonzero"/><path fill="#ffa399" d="M 410.820312 238.945312 C 410.820312 238.945312 416.378906 256.328125 417.363281 270.019531 C 418.632812 280.960938 423.382812 281.277344 425.949219 282.476562 C 428.519531 283.636719 426.761719 288.738281 419.828125 291.273438 C 419.828125 291.273438 421.09375 317.769531 414.65625 322.277344 C 408.214844 326.816406 385.308594 321.710938 382.28125 323.296875 C 379.257812 324.878906 377.8125 343.109375 378.410156 348.457031 C 378.410156 348.457031 346.882812 332.410156 331.964844 331.460938 L 332.667969 303.90625 C 332.667969 303.90625 308.386719 256.890625 325.910156 237.359375 C 343.398438 217.828125 386.46875 210.617188 410.820312 238.945312 Z M 410.820312 238.945312 " fill-opacity="1" fill-rule="nonzero"/><path fill="#322f41" d="M 411.207031 310.242188 C 406.878906 311.472656 391.785156 316.714844 385.449219 314.921875 C 379.1875 313.160156 370.671875 292.46875 373.730469 264.386719 C 374.402344 258.335938 379.574219 251.367188 383.9375 246.054688 C 387.492188 241.722656 392.875 239.226562 398.503906 239.226562 C 418.421875 239.296875 425.703125 234.40625 417.152344 219.097656 C 416.589844 218.113281 415.957031 217.160156 415.21875 216.28125 C 412.578125 213.078125 405.613281 205.828125 394.386719 202.03125 C 371.972656 194.464844 327.285156 189.429688 311.34375 225.746094 C 311.34375 225.746094 290.335938 238.242188 306.945312 275.894531 C 319.296875 301.371094 334.636719 305.277344 334.636719 305.277344 C 334.636719 305.277344 347.375 300.527344 352.339844 294.160156 C 353.710938 292.363281 353.78125 289.898438 352.691406 287.894531 C 350.15625 283.320312 345.054688 271.988281 353.640625 266.042969 C 361.980469 260.269531 365.109375 270.335938 366.484375 280.925781 C 367.257812 288 369.367188 300.632812 372.429688 309.5 C 375.738281 319.144531 379.046875 325.757812 395.300781 326.605469 C 410.363281 327.378906 419.371094 328.117188 421.09375 314.253906 C 421.234375 312.28125 419.40625 307.917969 411.207031 310.242188 Z M 411.207031 310.242188 " fill-opacity="1" fill-rule="nonzero"/><path fill="#ffa399" d="M 436.964844 442.417969 C 436.964844 442.417969 484.363281 438.300781 500.089844 436.082031 C 515.785156 433.863281 524.335938 430.839844 530.140625 433.863281 C 535.910156 436.890625 546.574219 436.714844 552.554688 436.257812 C 558.539062 435.800781 567.054688 438.261719 571.101562 437.277344 C 575.144531 436.257812 574.582031 431.507812 568.25 430.097656 C 561.914062 428.726562 555.371094 429.816406 552.449219 427.707031 C 549.496094 425.59375 552.273438 420.632812 556.566406 420.070312 C 560.894531 419.507812 570.148438 422.359375 574.757812 424.679688 C 579.367188 426.96875 583.941406 429.078125 586.441406 429.078125 C 588.90625 429.078125 590.664062 425.59375 585.703125 423.484375 C 580.742188 421.371094 573.5625 416.515625 573.5625 416.515625 C 573.5625 416.515625 586.898438 417.992188 590.277344 417.605469 C 593.691406 417.253906 595.0625 413.839844 589.996094 412.75 C 584.929688 411.660156 567.300781 409.792969 565.1875 409.089844 C 565.1875 409.089844 568.144531 407.261719 566.949219 405.886719 C 565.75 404.515625 563.359375 405.253906 558.785156 406.699219 C 554.175781 408.175781 532.710938 414.617188 527.644531 415.25 C 522.574219 415.882812 457.550781 411.589844 445.972656 410.851562 C 434.394531 410.109375 413.28125 403.496094 413.28125 403.496094 Z M 436.964844 442.417969 " fill-opacity="1" fill-rule="nonzero"/><g clip-path="url(#4b753d5c20)"><path fill="#ffcb52" d="M 476.761719 556.996094 C 448.1875 566.074219 422.113281 571.988281 398.503906 574.378906 C 388.40625 575.4375 378.800781 575.753906 369.648438 575.402344 C 368.699219 575.402344 367.785156 575.296875 366.871094 575.191406 C 364.40625 575.15625 361.910156 574.945312 359.550781 574.699219 C 357.792969 574.484375 356.03125 574.308594 354.238281 574.027344 C 352.234375 573.78125 350.191406 573.464844 348.222656 573.078125 C 334.214844 550.59375 293.222656 478.910156 291.394531 410.109375 C 291.394531 360.105469 321.902344 337.6875 321.902344 337.6875 L 323.027344 328.890625 C 323.027344 328.890625 355.363281 331.460938 381.824219 350.570312 C 386.574219 358.664062 386.222656 364.925781 386.222656 364.925781 C 386.222656 364.925781 432.53125 409.371094 448.71875 457.160156 C 460.644531 492.316406 471.765625 536.339844 476.761719 556.996094 Z M 476.761719 556.996094 " fill-opacity="1" fill-rule="nonzero"/></g><path fill="#ffa399" d="M 450.933594 444.984375 C 450.933594 444.984375 484.011719 465.183594 492.808594 468.878906 C 501.640625 472.539062 575.285156 458.214844 578.417969 457.476562 C 581.550781 456.738281 585.386719 444.070312 585.773438 441.5 C 586.125 438.933594 587.425781 436.996094 589.644531 436.644531 C 591.859375 436.292969 594.5 438.582031 593.761719 443.367188 C 593.761719 443.367188 601.394531 437.59375 604.878906 438.050781 C 608.363281 438.511719 613.710938 440.269531 617.933594 439.25 C 622.15625 438.226562 630.53125 440.058594 630.53125 440.058594 C 630.53125 440.058594 635.210938 439.496094 637.886719 438.582031 C 640.558594 437.664062 642.109375 439.144531 642.496094 440.867188 C 642.847656 442.628906 639.292969 444.808594 635.703125 445.933594 C 635.703125 445.933594 641.863281 446.394531 644.429688 447.484375 C 647 448.574219 647.28125 451.988281 644.429688 452.550781 C 641.582031 453.113281 633.207031 455.507812 630.285156 459.273438 C 627.328125 463.039062 622.753906 468.5625 617.511719 471.660156 C 612.269531 474.792969 603.261719 475.53125 593.550781 478.628906 C 583.800781 481.757812 524.476562 508.960938 500.757812 517.019531 C 477.042969 525.113281 439.039062 501.957031 439.039062 501.957031 C 439.039062 501.957031 443.753906 445.546875 450.933594 444.984375 Z M 450.933594 444.984375 " fill-opacity="1" fill-rule="nonzero"/><path fill="#ffcb52" d="M 450.195312 439.109375 C 450.195312 439.109375 451.847656 471.625 442.488281 507.449219 C 442.488281 507.449219 377.988281 496.960938 330.59375 444.597656 C 310.570312 417.78125 325.277344 388.363281 345.476562 378.441406 C 358.285156 372.140625 391.394531 376.609375 409.414062 401.207031 C 427.429688 425.875 450.195312 439.109375 450.195312 439.109375 Z M 450.195312 439.109375 " fill-opacity="1" fill-rule="nonzero"/><path fill="#cc9e40" d="M 442.488281 507.449219 C 431.722656 505.792969 421.199219 502.769531 410.925781 499.179688 C 405.789062 497.382812 400.6875 495.34375 395.6875 493.160156 L 388.265625 489.675781 C 385.765625 488.550781 383.410156 487.179688 380.980469 485.910156 C 376.089844 483.449219 371.480469 480.457031 366.800781 477.640625 C 362.296875 474.511719 357.617188 471.660156 353.359375 468.175781 C 351.210938 466.449219 348.996094 464.867188 346.917969 463.039062 L 340.761719 457.546875 C 336.609375 453.957031 332.984375 449.804688 329.078125 445.933594 L 328.972656 445.792969 C 327.742188 443.929688 326.441406 442.132812 325.277344 440.234375 C 324.292969 438.226562 323.097656 436.328125 322.324219 434.214844 C 321.585938 432.105469 320.632812 430.027344 320.246094 427.8125 L 319.507812 424.539062 L 319.121094 421.160156 C 318.734375 418.910156 319.050781 416.65625 318.980469 414.40625 C 319.332031 412.1875 319.367188 409.898438 320.035156 407.71875 C 320.949219 403.285156 322.851562 399.167969 324.996094 395.226562 C 327.285156 391.355469 330.0625 387.800781 333.265625 384.667969 C 336.574219 381.640625 340.164062 378.898438 344.210938 376.890625 C 345.476562 376.257812 346.285156 376.046875 347.339844 375.589844 L 350.824219 374.710938 C 353.078125 374.324219 355.292969 374.074219 357.546875 374.039062 C 362.015625 373.96875 366.449219 374.394531 370.777344 375.238281 C 375.070312 376.1875 379.363281 377.347656 383.375 379.144531 C 387.457031 380.796875 391.289062 383.015625 394.949219 385.40625 C 398.539062 387.976562 402.023438 390.6875 404.980469 393.921875 C 406.5625 395.472656 407.898438 397.195312 409.238281 398.921875 C 410.644531 400.644531 411.804688 402.335938 413.105469 404.058594 C 415.675781 407.4375 418.421875 410.675781 421.234375 413.875 C 424.085938 417.042969 427.078125 420.105469 430.171875 423.027344 C 436.402344 428.867188 443.015625 434.320312 450.195312 439.074219 C 442.734375 434.851562 435.804688 429.675781 429.257812 424.082031 C 425.984375 421.265625 422.855469 418.308594 419.792969 415.25 C 416.765625 412.1875 413.882812 408.914062 411.171875 405.535156 C 408.460938 402.191406 406 398.746094 402.9375 395.859375 C 400.015625 392.832031 396.640625 390.335938 393.191406 388.011719 C 389.636719 385.828125 385.941406 383.824219 382 382.382812 C 378.128906 380.796875 374.085938 379.742188 370.003906 378.898438 C 365.921875 378.121094 361.769531 377.769531 357.652344 377.875 C 355.574219 377.945312 353.570312 378.191406 351.597656 378.546875 L 348.855469 379.25 C 347.941406 379.636719 346.707031 380.058594 346.039062 380.445312 C 342.414062 382.3125 339.144531 384.808594 336.152344 387.625 C 333.265625 390.546875 330.734375 393.78125 328.691406 397.335938 C 326.792969 400.960938 325.066406 404.691406 324.328125 408.703125 C 323.730469 410.640625 323.695312 412.714844 323.34375 414.722656 C 323.378906 416.761719 323.0625 418.804688 323.414062 420.808594 L 323.730469 423.835938 L 324.398438 426.828125 C 324.75 428.832031 325.558594 430.734375 326.230469 432.667969 C 326.898438 434.605469 328.023438 436.363281 328.867188 438.226562 C 329.921875 439.988281 331.121094 441.675781 332.246094 443.4375 L 332.140625 443.296875 C 335.941406 447.097656 339.425781 451.214844 343.472656 454.769531 L 349.453125 460.1875 C 351.457031 461.980469 353.640625 463.566406 355.714844 465.289062 C 357.828125 466.980469 359.867188 468.703125 362.085938 470.214844 L 368.628906 474.933594 C 373.167969 477.816406 377.636719 480.914062 382.386719 483.484375 C 384.746094 484.785156 387.03125 486.226562 389.460938 487.390625 L 396.675781 491.050781 C 401.566406 493.300781 406.492188 495.589844 411.523438 497.628906 C 416.554688 499.671875 421.621094 501.5 426.796875 503.191406 C 431.96875 504.738281 437.175781 506.320312 442.488281 507.449219 Z M 442.488281 507.449219 " fill-opacity="1" fill-rule="nonzero"/><path fill="#bdbab2" d="M 581.480469 353.417969 L 470.074219 332.796875 C 468.035156 332.410156 466.59375 330.582031 466.734375 328.503906 L 470.921875 265.476562 C 471.0625 263.332031 472.855469 261.640625 475.003906 261.640625 L 590.347656 261.640625 C 592.773438 261.640625 594.675781 263.71875 594.429688 266.148438 L 586.300781 349.757812 C 586.054688 352.152344 583.835938 353.839844 581.480469 353.417969 Z M 581.480469 353.417969 " fill-opacity="1" fill-rule="nonzero"/><path fill="#38424d" d="M 593.726562 273.078125 L 470.570312 270.335938 L 470.957031 264.527344 C 471.0625 262.910156 472.433594 261.640625 474.050781 261.640625 L 591.402344 261.640625 C 593.234375 261.640625 594.675781 263.226562 594.5 265.054688 Z M 593.726562 273.078125 " fill-opacity="1" fill-rule="nonzero"/><path fill="#d2c6cd" d="M 476.515625 266.253906 C 476.410156 267.203125 475.671875 267.941406 474.863281 267.941406 C 474.015625 267.941406 473.417969 267.167969 473.488281 266.21875 C 473.558594 265.265625 474.332031 264.527344 475.179688 264.527344 C 476.023438 264.527344 476.621094 265.300781 476.515625 266.253906 Z M 476.515625 266.253906 " fill-opacity="1" fill-rule="nonzero"/><path fill="#d2c6cd" d="M 481.265625 266.289062 C 481.160156 267.238281 480.421875 268.011719 479.578125 268.011719 C 478.730469 268.011719 478.132812 267.203125 478.238281 266.253906 C 478.34375 265.300781 479.082031 264.527344 479.929688 264.527344 C 480.738281 264.5625 481.335938 265.335938 481.265625 266.289062 Z M 481.265625 266.289062 " fill-opacity="1" fill-rule="nonzero"/><path fill="#d2c6cd" d="M 485.980469 266.359375 C 485.875 267.34375 485.136719 268.117188 484.292969 268.082031 C 483.445312 268.082031 482.847656 267.273438 482.953125 266.324219 C 483.058594 265.371094 483.800781 264.5625 484.644531 264.597656 C 485.453125 264.597656 486.050781 265.371094 485.980469 266.359375 Z M 485.980469 266.359375 " fill-opacity="1" fill-rule="nonzero"/><path fill="#ffffff" d="M 480.808594 330.371094 L 479.472656 330.125 L 483.375 274.875 L 484.75 274.945312 Z M 480.808594 330.371094 " fill-opacity="1" fill-rule="nonzero"/><path fill="#ffffff" d="M 479.859375 278.605469 L 477.535156 278.5 L 477.675781 276.386719 L 480 276.457031 Z M 479.859375 278.605469 " fill-opacity="1" fill-rule="nonzero"/><path fill="#ffffff" d="M 479.507812 283.214844 L 477.21875 283.109375 L 477.359375 280.996094 L 479.683594 281.101562 Z M 479.507812 283.214844 " fill-opacity="1" fill-rule="nonzero"/><path fill="#ffffff" d="M 479.191406 287.859375 L 476.902344 287.71875 L 477.042969 285.605469 L 479.332031 285.746094 Z M 479.191406 287.859375 " fill-opacity="1" fill-rule="nonzero"/><path fill="#ffffff" d="M 478.871094 292.503906 L 476.585938 292.328125 L 476.726562 290.21875 L 479.011719 290.394531 Z M 478.871094 292.503906 " fill-opacity="1" fill-rule="nonzero"/><path fill="#ffffff" d="M 478.554688 297.148438 L 476.269531 296.9375 L 476.410156 294.863281 L 478.695312 295.039062 Z M 478.554688 297.148438 " fill-opacity="1" fill-rule="nonzero"/><path fill="#ffffff" d="M 478.238281 301.792969 L 475.953125 301.546875 L 476.09375 299.472656 L 478.378906 299.683594 Z M 478.238281 301.792969 " fill-opacity="1" fill-rule="nonzero"/><path fill="#ffffff" d="M 477.886719 306.441406 L 475.636719 306.195312 L 475.777344 304.082031 L 478.0625 304.328125 Z M 477.886719 306.441406 " fill-opacity="1" fill-rule="nonzero"/><path fill="#ffffff" d="M 477.570312 311.085938 L 475.320312 310.804688 L 475.460938 308.691406 L 477.710938 308.972656 Z M 477.570312 311.085938 " fill-opacity="1" fill-rule="nonzero"/><path fill="#ffffff" d="M 477.253906 315.730469 L 475.003906 315.414062 L 475.144531 313.300781 L 477.394531 313.582031 Z M 477.253906 315.730469 " fill-opacity="1" fill-rule="nonzero"/><path fill="#ffffff" d="M 476.9375 320.375 L 474.683594 320.023438 L 474.828125 317.910156 L 477.078125 318.230469 Z M 476.9375 320.375 " fill-opacity="1" fill-rule="nonzero"/><path fill="#ffffff" d="M 476.585938 324.984375 L 474.367188 324.632812 L 474.507812 322.523438 L 476.761719 322.875 Z M 476.585938 324.984375 " fill-opacity="1" fill-rule="nonzero"/><path fill="#ffffff" d="M 490.273438 276.246094 L 488.480469 277.863281 C 488.339844 277.96875 488.339844 278.148438 488.445312 278.289062 L 489.957031 279.941406 C 490.0625 280.082031 490.273438 280.082031 490.414062 279.976562 C 490.484375 279.90625 490.519531 279.835938 490.519531 279.765625 C 490.519531 279.695312 490.484375 279.625 490.449219 279.554688 C 490.449219 279.554688 489.429688 278.464844 489.148438 278.148438 C 489.5 277.828125 490.730469 276.738281 490.730469 276.738281 C 490.800781 276.667969 490.835938 276.597656 490.835938 276.527344 C 490.835938 276.457031 490.800781 276.351562 490.730469 276.28125 C 490.625 276.140625 490.414062 276.140625 490.273438 276.246094 Z M 490.273438 276.246094 " fill-opacity="1" fill-rule="nonzero"/><path fill="#ffffff" d="M 498.191406 276.527344 C 498.121094 276.597656 498.085938 276.667969 498.085938 276.738281 C 498.085938 276.808594 498.121094 276.878906 498.15625 276.949219 C 498.15625 276.949219 499.210938 278.183594 499.492188 278.5 C 499.140625 278.816406 497.980469 279.835938 497.980469 279.835938 C 497.910156 279.90625 497.875 279.976562 497.875 280.046875 C 497.875 280.117188 497.875 280.222656 497.945312 280.292969 C 498.050781 280.398438 498.261719 280.433594 498.402344 280.292969 L 500.125 278.746094 C 500.265625 278.640625 500.265625 278.429688 500.160156 278.324219 L 498.613281 276.527344 C 498.542969 276.421875 498.332031 276.421875 498.191406 276.527344 Z M 498.191406 276.527344 " fill-opacity="1" fill-rule="nonzero"/><path fill="#ffffff" d="M 495.585938 276.597656 L 492.246094 279.484375 C 492.101562 279.589844 492.101562 279.800781 492.207031 279.90625 C 492.316406 280.046875 492.527344 280.046875 492.667969 279.90625 L 496.007812 277.019531 C 496.148438 276.914062 496.148438 276.703125 496.042969 276.597656 C 495.902344 276.492188 495.726562 276.492188 495.585938 276.597656 Z M 495.585938 276.597656 " fill-opacity="1" fill-rule="nonzero"/><path fill="#ffffff" d="M 486.507812 327.765625 L 484.75 329.171875 C 484.609375 329.277344 484.609375 329.453125 484.714844 329.59375 L 486.15625 331.425781 C 486.261719 331.566406 486.472656 331.601562 486.613281 331.496094 C 486.683594 331.460938 486.71875 331.355469 486.71875 331.285156 C 486.71875 331.214844 486.683594 331.109375 486.648438 331.074219 C 486.648438 331.074219 485.664062 329.839844 485.382812 329.488281 C 485.699219 329.207031 486.929688 328.257812 486.929688 328.257812 C 487 328.1875 487.035156 328.117188 487.035156 328.046875 C 487.035156 327.976562 487 327.871094 486.964844 327.800781 C 486.859375 327.695312 486.648438 327.660156 486.507812 327.765625 Z M 486.507812 327.765625 " fill-opacity="1" fill-rule="nonzero"/><path fill="#ffffff" d="M 494.25 328.996094 C 494.179688 329.066406 494.144531 329.136719 494.144531 329.207031 C 494.144531 329.277344 494.144531 329.347656 494.214844 329.417969 C 494.214844 329.417969 495.234375 330.792969 495.515625 331.144531 C 495.164062 331.425781 494.039062 332.304688 494.039062 332.304688 C 493.96875 332.339844 493.933594 332.410156 493.933594 332.515625 C 493.933594 332.585938 493.933594 332.691406 494.003906 332.761719 C 494.109375 332.902344 494.320312 332.9375 494.460938 332.832031 L 496.148438 331.496094 C 496.253906 331.390625 496.289062 331.214844 496.183594 331.074219 L 494.671875 329.066406 C 494.566406 328.960938 494.390625 328.925781 494.25 328.996094 Z M 494.25 328.996094 " fill-opacity="1" fill-rule="nonzero"/><path fill="#ffffff" d="M 491.679688 328.785156 L 488.445312 331.285156 C 488.304688 331.390625 488.304688 331.566406 488.410156 331.707031 C 488.515625 331.847656 488.726562 331.882812 488.867188 331.777344 L 492.136719 329.277344 C 492.28125 329.171875 492.28125 328.996094 492.171875 328.820312 C 492.03125 328.714844 491.820312 328.679688 491.679688 328.785156 Z M 491.679688 328.785156 " fill-opacity="1" fill-rule="nonzero"/><path fill="#ffffff" d="M 496.113281 283.53125 L 485.628906 283.003906 L 485.769531 281.066406 L 496.253906 281.558594 Z M 496.113281 283.53125 " fill-opacity="1" fill-rule="nonzero"/><path fill="#ffffff" d="M 495.410156 310.101562 L 483.800781 308.726562 L 483.941406 306.792969 L 495.550781 308.09375 Z M 495.410156 310.101562 " fill-opacity="1" fill-rule="nonzero"/><path fill="#ffffff" d="M 490.414062 327.203125 L 482.566406 325.933594 L 482.707031 324 L 490.554688 325.230469 Z M 490.414062 327.203125 " fill-opacity="1" fill-rule="nonzero"/><path fill="#ffffff" d="M 504.59375 288.527344 L 487.917969 287.472656 L 488.058594 285.5 L 504.734375 286.488281 Z M 504.59375 288.527344 " fill-opacity="1" fill-rule="nonzero"/><path fill="#ffffff" d="M 501.113281 315.378906 L 486.050781 313.441406 L 486.191406 311.472656 L 501.253906 313.335938 Z M 501.113281 315.378906 " fill-opacity="1" fill-rule="nonzero"/><path fill="#ffffff" d="M 500.476562 319.636719 L 485.734375 317.59375 L 485.875 315.660156 L 500.652344 317.628906 Z M 500.476562 319.636719 " fill-opacity="1" fill-rule="nonzero"/><path fill="#ffffff" d="M 493.300781 323.121094 L 485.417969 321.921875 L 485.558594 319.988281 L 493.476562 321.148438 Z M 493.300781 323.121094 " fill-opacity="1" fill-rule="nonzero"/><path fill="#ffffff" d="M 528.804688 328.433594 L 495.199219 323.402344 L 495.339844 321.394531 L 528.980469 326.289062 Z M 528.804688 328.433594 " fill-opacity="1" fill-rule="nonzero"/><path fill="#ffffff" d="M 526.726562 323.296875 L 502.238281 319.882812 L 502.378906 317.875 L 526.902344 321.148438 Z M 526.726562 323.296875 " fill-opacity="1" fill-rule="nonzero"/><path fill="#ffffff" d="M 536.511719 324.667969 L 528.59375 323.578125 L 528.769531 321.394531 L 536.6875 322.488281 Z M 536.511719 324.667969 " fill-opacity="1" fill-rule="nonzero"/><path fill="#ffffff" d="M 556.214844 322.453125 L 540.453125 320.410156 L 540.664062 318.230469 L 556.425781 320.164062 Z M 556.214844 322.453125 " fill-opacity="1" fill-rule="nonzero"/><path fill="#ffffff" d="M 538.480469 320.164062 L 502.730469 315.589844 L 502.871094 313.546875 L 538.65625 317.980469 Z M 538.480469 320.164062 " fill-opacity="1" fill-rule="nonzero"/><path fill="#ffffff" d="M 515.890625 289.230469 L 506.320312 288.632812 L 506.460938 286.59375 L 516.066406 287.15625 Z M 515.890625 289.230469 " fill-opacity="1" fill-rule="nonzero"/><path fill="#ffffff" d="M 498.261719 297.148438 L 487.28125 296.234375 L 487.421875 294.265625 L 498.402344 295.144531 Z M 498.261719 297.148438 " fill-opacity="1" fill-rule="nonzero"/><path fill="#ffffff" d="M 517.894531 298.804688 L 500.054688 297.324219 L 500.195312 295.320312 L 518.035156 296.726562 Z M 517.894531 298.804688 " fill-opacity="1" fill-rule="nonzero"/><path fill="#ffffff" d="M 534.75 290.429688 L 517.613281 289.335938 L 517.789062 287.226562 L 534.925781 288.246094 Z M 534.75 290.429688 " fill-opacity="1" fill-rule="nonzero"/><path fill="#ffffff" d="M 506.566406 293.3125 L 487.597656 291.90625 L 487.738281 289.933594 L 506.707031 291.273438 Z M 506.566406 293.3125 " fill-opacity="1" fill-rule="nonzero"/><path fill="#ffffff" d="M 527.078125 294.828125 L 508.5 293.453125 L 508.675781 291.414062 L 527.257812 292.679688 Z M 527.078125 294.828125 " fill-opacity="1" fill-rule="nonzero"/><path fill="#ffffff" d="M 541.859375 295.917969 L 528.910156 294.96875 L 529.085938 292.820312 L 542.070312 293.699219 Z M 541.859375 295.917969 " fill-opacity="1" fill-rule="nonzero"/><path fill="#ffffff" d="M 509.34375 302.710938 L 486.964844 300.5625 L 487.105469 298.59375 L 509.519531 300.632812 Z M 509.34375 302.710938 " fill-opacity="1" fill-rule="nonzero"/><path fill="#ffffff" d="M 523 304.011719 L 511.070312 302.851562 L 511.246094 300.808594 L 523.175781 301.898438 Z M 523 304.011719 " fill-opacity="1" fill-rule="nonzero"/><path fill="#ffffff" d="M 508.992188 307.039062 L 486.683594 304.679688 L 486.824219 302.710938 L 509.167969 304.996094 Z M 508.992188 307.039062 " fill-opacity="1" fill-rule="nonzero"/><path fill="#ffffff" d="M 531.441406 309.429688 L 510.71875 307.214844 L 510.894531 305.171875 L 531.621094 307.25 Z M 531.441406 309.429688 " fill-opacity="1" fill-rule="nonzero"/><path fill="#ffffff" d="M 548.15625 306.40625 L 525.003906 304.1875 L 525.179688 302.078125 L 548.367188 304.1875 Z M 548.15625 306.40625 " fill-opacity="1" fill-rule="nonzero"/><path fill="#ffffff" d="M 503.503906 283.917969 L 498.121094 283.636719 L 498.261719 281.664062 L 503.679688 281.910156 Z M 503.503906 283.917969 " fill-opacity="1" fill-rule="nonzero"/><path fill="#fffaf3" d="M 832.613281 233.984375 L 740.632812 234.617188 C 738.945312 234.617188 737.960938 233.066406 738.3125 231.027344 L 749.21875 169.867188 C 749.570312 167.789062 751.261719 166.03125 753.054688 165.820312 L 848.097656 156.035156 C 850.101562 155.859375 851.476562 157.441406 851.089844 159.414062 L 837.046875 230.042969 C 836.625 232.117188 834.585938 233.949219 832.613281 233.984375 Z M 832.613281 233.984375 " fill-opacity="1" fill-rule="nonzero"/><path fill="#38424d" d="M 849.890625 165.183594 L 748.375 174.546875 L 749.359375 168.949219 C 749.640625 167.402344 750.910156 166.066406 752.246094 165.890625 L 848.941406 155.929688 C 850.453125 155.789062 851.511719 156.984375 851.195312 158.5 Z M 849.890625 165.183594 " fill-opacity="1" fill-rule="nonzero"/><path fill="#d2c6cd" d="M 753.792969 170.042969 C 753.617188 170.957031 752.914062 171.730469 752.210938 171.800781 C 751.507812 171.871094 751.121094 171.203125 751.296875 170.324219 C 751.472656 169.441406 752.175781 168.632812 752.878906 168.5625 C 753.546875 168.457031 753.96875 169.125 753.792969 170.042969 Z M 753.792969 170.042969 " fill-opacity="1" fill-rule="nonzero"/><path fill="#d2c6cd" d="M 757.664062 169.617188 C 757.488281 170.535156 756.785156 171.34375 756.082031 171.414062 C 755.378906 171.484375 754.992188 170.816406 755.167969 169.902344 C 755.34375 168.984375 756.046875 168.210938 756.75 168.105469 C 757.453125 168.035156 757.875 168.703125 757.664062 169.617188 Z M 757.664062 169.617188 " fill-opacity="1" fill-rule="nonzero"/><path fill="#d2c6cd" d="M 761.570312 169.195312 C 761.394531 170.113281 760.691406 170.921875 759.988281 170.992188 C 759.285156 171.0625 758.894531 170.394531 759.070312 169.476562 C 759.25 168.5625 759.953125 167.753906 760.65625 167.683594 C 761.359375 167.578125 761.746094 168.28125 761.570312 169.195312 Z M 761.570312 169.195312 " fill-opacity="1" fill-rule="nonzero"/><path fill="#614bee" d="M 760.09375 178.3125 L 758.4375 180.035156 C 758.332031 180.140625 758.296875 180.316406 758.367188 180.421875 L 759.425781 181.792969 C 759.496094 181.902344 759.671875 181.902344 759.8125 181.757812 C 759.882812 181.6875 759.917969 181.617188 759.917969 181.546875 C 759.917969 181.476562 759.917969 181.40625 759.882812 181.335938 C 759.882812 181.335938 759.179688 180.421875 758.964844 180.140625 C 759.285156 179.824219 760.445312 178.664062 760.445312 178.664062 C 760.515625 178.59375 760.550781 178.523438 760.550781 178.453125 C 760.550781 178.382812 760.550781 178.3125 760.515625 178.242188 C 760.375 178.171875 760.199219 178.207031 760.09375 178.3125 Z M 760.09375 178.3125 " fill-opacity="1" fill-rule="nonzero"/><path fill="#614bee" d="M 766.601562 177.710938 C 766.53125 177.78125 766.496094 177.855469 766.460938 177.925781 C 766.460938 177.996094 766.460938 178.066406 766.496094 178.101562 C 766.496094 178.101562 767.234375 179.121094 767.445312 179.402344 C 767.128906 179.71875 766.039062 180.808594 766.039062 180.808594 C 765.96875 180.878906 765.933594 180.949219 765.933594 181.019531 C 765.933594 181.089844 765.933594 181.160156 765.96875 181.230469 C 766.039062 181.335938 766.214844 181.300781 766.355469 181.195312 L 767.976562 179.578125 C 768.082031 179.472656 768.117188 179.296875 768.046875 179.191406 L 766.953125 177.710938 C 766.917969 177.570312 766.742188 177.605469 766.601562 177.710938 Z M 766.601562 177.710938 " fill-opacity="1" fill-rule="nonzero"/><path fill="#614bee" d="M 764.421875 178.066406 L 761.324219 181.125 C 761.183594 181.230469 761.148438 181.441406 761.253906 181.511719 C 761.324219 181.617188 761.5 181.582031 761.640625 181.476562 L 764.738281 178.417969 C 764.84375 178.277344 764.878906 178.101562 764.808594 177.996094 C 764.738281 177.925781 764.5625 177.960938 764.421875 178.066406 Z M 764.421875 178.066406 " fill-opacity="1" fill-rule="nonzero"/><path fill="#614bee" d="M 751.15625 227.296875 L 749.535156 228.914062 C 749.429688 229.019531 749.394531 229.195312 749.464844 229.335938 L 750.488281 230.851562 C 750.558594 230.957031 750.734375 230.957031 750.839844 230.851562 C 750.910156 230.78125 750.945312 230.710938 750.945312 230.640625 C 750.945312 230.570312 750.945312 230.5 750.910156 230.429688 C 750.910156 230.429688 750.238281 229.40625 750.027344 229.125 C 750.34375 228.808594 751.472656 227.71875 751.472656 227.71875 C 751.542969 227.648438 751.578125 227.578125 751.578125 227.507812 C 751.578125 227.4375 751.578125 227.367188 751.542969 227.296875 C 751.4375 227.191406 751.261719 227.191406 751.15625 227.296875 Z M 751.15625 227.296875 " fill-opacity="1" fill-rule="nonzero"/><path fill="#614bee" d="M 757.523438 227.226562 C 757.453125 227.296875 757.417969 227.367188 757.417969 227.4375 C 757.417969 227.507812 757.417969 227.578125 757.453125 227.648438 C 757.453125 227.648438 758.15625 228.773438 758.367188 229.054688 C 758.050781 229.371094 756.996094 230.394531 756.996094 230.394531 C 756.925781 230.464844 756.890625 230.535156 756.890625 230.605469 C 756.890625 230.675781 756.890625 230.746094 756.925781 230.816406 C 756.996094 230.921875 757.171875 230.921875 757.277344 230.816406 L 758.859375 229.265625 C 758.964844 229.160156 759 228.984375 758.929688 228.84375 L 757.875 227.226562 C 757.804688 227.121094 757.628906 227.121094 757.523438 227.226562 Z M 757.523438 227.226562 " fill-opacity="1" fill-rule="nonzero"/><path fill="#614bee" d="M 755.378906 227.402344 L 752.351562 230.324219 C 752.210938 230.429688 752.175781 230.640625 752.28125 230.746094 C 752.351562 230.851562 752.527344 230.851562 752.632812 230.746094 L 755.660156 227.824219 C 755.765625 227.71875 755.800781 227.507812 755.730469 227.402344 C 755.660156 227.296875 755.519531 227.296875 755.378906 227.402344 Z M 755.378906 227.402344 " fill-opacity="1" fill-rule="nonzero"/><path fill="#614bee" d="M 764.105469 184.433594 L 755.484375 185.136719 L 755.800781 183.308594 L 764.457031 182.570312 Z M 764.105469 184.433594 " fill-opacity="1" fill-rule="nonzero"/><path fill="#614bee" d="M 760.621094 209.277344 L 751.015625 209.664062 L 751.367188 207.835938 L 760.9375 207.414062 Z M 760.621094 209.277344 " fill-opacity="1" fill-rule="nonzero"/><path fill="#614bee" d="M 754.460938 226.136719 L 748.023438 226.242188 L 748.339844 224.375 L 754.816406 224.269531 Z M 754.460938 226.136719 " fill-opacity="1" fill-rule="nonzero"/><path fill="#e75582" d="M 770.648438 188.058594 L 756.855469 189.078125 L 757.207031 187.214844 L 771 186.160156 Z M 770.648438 188.058594 " fill-opacity="1" fill-rule="nonzero"/><path fill="#8e7af6" d="M 764.808594 213.359375 L 752.351562 213.816406 L 752.703125 211.953125 L 765.160156 211.460938 Z M 764.808594 213.359375 " fill-opacity="1" fill-rule="nonzero"/><path fill="#e75582" d="M 763.824219 217.441406 L 751.648438 217.792969 L 751.964844 215.929688 L 764.175781 215.542969 Z M 763.824219 217.441406 " fill-opacity="1" fill-rule="nonzero"/><path fill="#614bee" d="M 757.382812 221.804688 L 750.875 221.949219 L 751.226562 220.082031 L 757.734375 219.941406 Z M 757.382812 221.804688 " fill-opacity="1" fill-rule="nonzero"/><path fill="#614bee" d="M 786.660156 221.101562 L 758.929688 221.769531 L 759.285156 219.90625 L 787.046875 219.132812 Z M 786.660156 221.101562 " fill-opacity="1" fill-rule="nonzero"/><path fill="#e75582" d="M 785.464844 216.773438 L 765.230469 217.40625 L 765.582031 215.507812 L 785.816406 214.839844 Z M 785.464844 216.773438 " fill-opacity="1" fill-rule="nonzero"/><path fill="#e75582" d="M 793.519531 216.527344 L 787.011719 216.738281 L 787.363281 214.769531 L 793.90625 214.523438 Z M 793.519531 216.527344 " fill-opacity="1" fill-rule="nonzero"/><path fill="#8e7af6" d="M 810.269531 211.636719 L 797.285156 212.164062 L 797.671875 210.160156 L 810.691406 209.59375 Z M 810.269531 211.636719 " fill-opacity="1" fill-rule="nonzero"/><path fill="#8e7af6" d="M 795.632812 212.234375 L 766.109375 213.324219 L 766.460938 211.425781 L 796.019531 210.230469 Z M 795.632812 212.234375 " fill-opacity="1" fill-rule="nonzero"/><path fill="#e75582" d="M 779.9375 187.355469 L 772.054688 187.953125 L 772.410156 186.054688 L 780.324219 185.453125 Z M 779.9375 187.355469 " fill-opacity="1" fill-rule="nonzero"/><path fill="#614bee" d="M 764.421875 196.820312 L 755.34375 197.382812 L 755.695312 195.554688 L 764.773438 194.957031 Z M 764.421875 196.820312 " fill-opacity="1" fill-rule="nonzero"/><path fill="#614bee" d="M 780.605469 195.835938 L 765.898438 196.75 L 766.25 194.851562 L 780.957031 193.902344 Z M 780.605469 195.835938 " fill-opacity="1" fill-rule="nonzero"/><path fill="#e75582" d="M 795.527344 186.230469 L 781.382812 187.25 L 781.734375 185.347656 L 795.878906 184.292969 Z M 795.527344 186.230469 " fill-opacity="1" fill-rule="nonzero"/><path fill="#8e7af6" d="M 771.738281 192.210938 L 756.117188 193.265625 L 756.433594 191.4375 L 772.089844 190.3125 Z M 771.738281 192.210938 " fill-opacity="1" fill-rule="nonzero"/><path fill="#8e7af6" d="M 788.664062 191.085938 L 773.359375 192.105469 L 773.710938 190.207031 L 789.050781 189.148438 Z M 788.664062 191.085938 " fill-opacity="1" fill-rule="nonzero"/><path fill="#8e7af6" d="M 800.875 190.277344 L 790.179688 190.980469 L 790.566406 189.042969 L 801.261719 188.304688 Z M 800.875 190.277344 " fill-opacity="1" fill-rule="nonzero"/><path fill="#e75582" d="M 773.078125 200.480469 L 754.601562 201.5 L 754.957031 199.636719 L 773.429688 198.582031 Z M 773.078125 200.480469 " fill-opacity="1" fill-rule="nonzero"/><path fill="#e75582" d="M 784.335938 199.882812 L 774.484375 200.410156 L 774.835938 198.511719 L 784.722656 197.914062 Z M 784.335938 199.882812 " fill-opacity="1" fill-rule="nonzero"/><path fill="#614bee" d="M 772.339844 204.527344 L 753.898438 205.441406 L 754.214844 203.578125 L 772.691406 202.628906 Z M 772.339844 204.527344 " fill-opacity="1" fill-rule="nonzero"/><path fill="#614bee" d="M 790.847656 203.613281 L 773.746094 204.457031 L 774.097656 202.558594 L 791.199219 201.640625 Z M 790.847656 203.613281 " fill-opacity="1" fill-rule="nonzero"/><path fill="#e75582" d="M 805.097656 198.722656 L 785.992188 199.777344 L 786.34375 197.84375 L 805.484375 196.714844 Z M 805.097656 198.722656 " fill-opacity="1" fill-rule="nonzero"/><path fill="#614bee" d="M 770.226562 183.941406 L 765.757812 184.292969 L 766.109375 182.429688 L 770.578125 182.078125 Z M 770.226562 183.941406 " fill-opacity="1" fill-rule="nonzero"/><path fill="#334d5c" d="M 602.101562 199.144531 L 601.359375 201.640625 L 589.328125 196.574219 L 589.890625 194.675781 L 605.125 189.042969 L 604.351562 191.613281 L 593.515625 195.554688 Z M 602.101562 199.144531 " fill-opacity="1" fill-rule="nonzero"/><path fill="#334d5c" d="M 604.808594 203.085938 L 617.792969 186.160156 L 620.503906 185.878906 L 607.34375 203.261719 Z M 604.808594 203.085938 " fill-opacity="1" fill-rule="nonzero"/><path fill="#334d5c" d="M 622.648438 190.558594 L 623.601562 187.460938 L 635.351562 193.335938 L 634.402344 196.433594 L 618.953125 202.664062 L 619.871094 199.636719 L 630.988281 194.957031 Z M 622.648438 190.558594 " fill-opacity="1" fill-rule="nonzero"/><path fill="#334d5c" d="M 693.835938 266.113281 C 693.765625 266.113281 693.695312 266.113281 693.625 266.113281 C 692.953125 266.007812 692.496094 265.371094 692.636719 264.703125 L 692.777344 263.964844 C 692.882812 263.296875 693.554688 262.839844 694.1875 262.980469 C 694.855469 263.085938 695.3125 263.71875 695.171875 264.386719 L 695.03125 265.125 C 694.925781 265.6875 694.398438 266.113281 693.835938 266.113281 Z M 693.835938 266.113281 " fill-opacity="1" fill-rule="nonzero"/><path fill="#334d5c" d="M 694.75 260.550781 C 694.679688 260.550781 694.609375 260.550781 694.539062 260.550781 C 693.871094 260.445312 693.410156 259.8125 693.554688 259.144531 L 693.800781 257.699219 C 693.90625 257.03125 694.574219 256.574219 695.207031 256.714844 C 695.875 256.820312 696.332031 257.453125 696.191406 258.125 L 695.945312 259.566406 C 695.875 260.128906 695.347656 260.550781 694.75 260.550781 Z M 528.453125 257.417969 C 528.417969 257.417969 528.347656 257.417969 528.277344 257.417969 C 527.609375 257.3125 527.148438 256.714844 527.21875 256.046875 L 527.433594 254.605469 C 527.539062 253.933594 528.136719 253.441406 528.804688 253.546875 C 529.472656 253.652344 529.929688 254.253906 529.859375 254.921875 L 529.648438 256.363281 C 529.578125 256.960938 529.050781 257.417969 528.453125 257.417969 Z M 695.804688 254.289062 C 695.734375 254.289062 695.664062 254.289062 695.59375 254.289062 C 694.925781 254.183594 694.46875 253.546875 694.609375 252.878906 L 694.855469 251.4375 C 694.960938 250.769531 695.558594 250.3125 696.261719 250.453125 C 696.929688 250.558594 697.386719 251.191406 697.246094 251.859375 L 697 253.300781 C 696.929688 253.863281 696.402344 254.289062 695.804688 254.289062 Z M 529.296875 251.121094 C 529.261719 251.121094 529.191406 251.121094 529.121094 251.121094 C 528.453125 251.015625 527.996094 250.417969 528.066406 249.746094 L 528.277344 248.304688 C 528.382812 247.636719 528.980469 247.109375 529.648438 247.25 C 530.316406 247.355469 530.773438 247.953125 530.703125 248.621094 L 530.492188 250.066406 C 530.421875 250.664062 529.894531 251.121094 529.296875 251.121094 Z M 696.859375 248.023438 C 696.789062 248.023438 696.71875 248.023438 696.648438 248.023438 C 695.980469 247.917969 695.523438 247.285156 695.664062 246.617188 L 695.910156 245.171875 C 696.015625 244.503906 696.648438 244.046875 697.316406 244.1875 C 697.988281 244.292969 698.445312 244.925781 698.304688 245.59375 L 698.058594 247.039062 C 697.988281 247.601562 697.457031 248.023438 696.859375 248.023438 Z M 530.140625 244.820312 C 530.105469 244.820312 530.035156 244.820312 529.964844 244.820312 C 529.296875 244.714844 528.839844 244.117188 528.910156 243.449219 L 529.121094 242.007812 C 529.226562 241.335938 529.824219 240.84375 530.492188 240.949219 C 531.160156 241.054688 531.617188 241.652344 531.546875 242.324219 L 531.335938 243.765625 C 531.265625 244.363281 530.738281 244.820312 530.140625 244.820312 Z M 697.953125 241.757812 C 697.882812 241.757812 697.808594 241.757812 697.738281 241.757812 C 697.070312 241.652344 696.613281 241.019531 696.753906 240.351562 L 697 238.910156 C 697.105469 238.242188 697.738281 237.78125 698.410156 237.921875 C 699.078125 238.03125 699.535156 238.664062 699.394531 239.332031 L 699.148438 240.773438 C 699.042969 241.335938 698.515625 241.757812 697.953125 241.757812 Z M 530.984375 238.523438 C 530.949219 238.523438 530.878906 238.523438 530.808594 238.523438 C 530.140625 238.417969 529.683594 237.816406 529.753906 237.148438 L 529.964844 235.707031 C 530.070312 235.039062 530.667969 234.546875 531.335938 234.652344 C 532.007812 234.757812 532.464844 235.355469 532.394531 236.023438 L 532.183594 237.464844 C 532.113281 238.066406 531.582031 238.523438 530.984375 238.523438 Z M 699.007812 235.496094 C 698.9375 235.496094 698.867188 235.496094 698.796875 235.496094 C 698.128906 235.390625 697.667969 234.757812 697.808594 234.089844 L 698.058594 232.644531 C 698.164062 231.976562 698.796875 231.519531 699.464844 231.660156 C 700.132812 231.765625 700.589844 232.398438 700.449219 233.066406 L 700.203125 234.511719 C 700.097656 235.074219 699.570312 235.496094 699.007812 235.496094 Z M 531.9375 232.257812 C 531.832031 232.257812 531.691406 232.257812 531.582031 232.1875 C 530.949219 231.976562 530.5625 231.308594 530.773438 230.640625 C 530.949219 230.113281 531.160156 229.582031 531.40625 229.089844 C 531.726562 228.492188 532.464844 228.246094 533.0625 228.5625 C 533.660156 228.878906 533.90625 229.617188 533.589844 230.21875 C 533.414062 230.605469 533.238281 230.992188 533.132812 231.378906 C 532.921875 231.90625 532.464844 232.257812 531.9375 232.257812 Z M 699.289062 229.230469 C 698.761719 229.230469 698.269531 228.878906 698.09375 228.316406 C 697.988281 227.894531 697.84375 227.507812 697.667969 227.15625 C 697.386719 226.558594 697.632812 225.816406 698.269531 225.535156 C 698.867188 225.253906 699.605469 225.5 699.886719 226.136719 C 700.132812 226.628906 700.308594 227.15625 700.449219 227.71875 C 700.625 228.386719 700.238281 229.054688 699.605469 229.230469 C 699.5 229.195312 699.394531 229.230469 699.289062 229.230469 Z M 535.769531 227.402344 C 535.347656 227.402344 534.960938 227.191406 534.714844 226.804688 C 534.363281 226.207031 534.574219 225.464844 535.136719 225.113281 C 535.628906 224.832031 536.125 224.585938 536.652344 224.410156 C 537.285156 224.199219 537.988281 224.515625 538.199219 225.148438 C 538.445312 225.78125 538.09375 226.488281 537.460938 226.734375 C 537.074219 226.875 536.6875 227.050781 536.335938 227.261719 C 536.195312 227.332031 535.984375 227.402344 535.769531 227.402344 Z M 541.929688 226.207031 C 541.261719 226.207031 540.734375 225.675781 540.699219 225.007812 C 540.699219 224.339844 541.226562 223.777344 541.894531 223.777344 L 543.371094 223.742188 C 543.371094 223.742188 543.371094 223.742188 543.40625 223.742188 C 544.074219 223.742188 544.601562 224.269531 544.636719 224.9375 C 544.636719 225.605469 544.109375 226.171875 543.441406 226.171875 L 541.929688 226.207031 C 541.964844 226.207031 541.929688 226.207031 541.929688 226.207031 Z M 548.261719 226.066406 C 547.59375 226.066406 547.066406 225.535156 547.03125 224.867188 C 547.03125 224.199219 547.558594 223.636719 548.226562 223.636719 L 549.707031 223.601562 C 549.707031 223.601562 549.707031 223.601562 549.742188 223.601562 C 550.410156 223.601562 550.9375 224.128906 550.972656 224.796875 C 550.972656 225.464844 550.445312 226.03125 549.777344 226.03125 L 548.261719 226.066406 C 548.296875 226.066406 548.296875 226.066406 548.261719 226.066406 Z M 554.632812 225.925781 C 553.964844 225.925781 553.433594 225.394531 553.398438 224.726562 C 553.398438 224.058594 553.929688 223.496094 554.597656 223.496094 L 556.074219 223.460938 C 556.074219 223.460938 556.074219 223.460938 556.109375 223.460938 C 556.777344 223.460938 557.304688 223.988281 557.339844 224.65625 C 557.339844 225.324219 556.8125 225.890625 556.144531 225.890625 Z M 560.964844 225.78125 C 560.296875 225.78125 559.769531 225.253906 559.734375 224.585938 C 559.734375 223.917969 560.261719 223.355469 560.929688 223.320312 L 562.410156 223.285156 C 563.113281 223.390625 563.640625 223.8125 563.675781 224.480469 C 563.675781 225.148438 563.148438 225.710938 562.480469 225.746094 L 560.964844 225.78125 C 561 225.78125 561 225.78125 560.964844 225.78125 Z M 567.335938 225.640625 C 566.667969 225.640625 566.136719 225.113281 566.101562 224.445312 C 566.101562 223.777344 566.632812 223.214844 567.300781 223.179688 L 568.777344 223.144531 C 569.515625 223.214844 570.007812 223.671875 570.042969 224.339844 C 570.042969 225.007812 569.515625 225.570312 568.847656 225.605469 L 567.335938 225.640625 C 567.371094 225.640625 567.335938 225.640625 567.335938 225.640625 Z M 573.703125 225.5 C 573.035156 225.5 572.507812 224.972656 572.472656 224.304688 C 572.472656 223.636719 573 223.074219 573.667969 223.074219 L 575.144531 223.039062 C 575.144531 223.039062 575.144531 223.039062 575.179688 223.039062 C 575.851562 223.039062 576.378906 223.566406 576.414062 224.234375 C 576.414062 224.902344 575.886719 225.464844 575.214844 225.464844 Z M 580.039062 225.359375 C 579.367188 225.359375 578.839844 224.832031 578.804688 224.164062 C 578.804688 223.496094 579.332031 222.933594 580.003906 222.933594 L 581.480469 222.898438 C 581.480469 222.898438 581.480469 222.898438 581.515625 222.898438 C 582.183594 222.898438 582.710938 223.425781 582.746094 224.09375 C 582.746094 224.761719 582.21875 225.324219 581.550781 225.324219 L 580.039062 225.359375 C 580.074219 225.359375 580.039062 225.359375 580.039062 225.359375 Z M 586.371094 225.21875 C 585.703125 225.21875 585.175781 224.691406 585.140625 224.023438 C 585.140625 223.355469 585.667969 222.792969 586.335938 222.792969 L 587.8125 222.757812 C 587.8125 222.757812 587.8125 222.757812 587.847656 222.757812 C 588.519531 222.757812 589.046875 223.285156 589.082031 223.953125 C 589.082031 224.621094 588.554688 225.183594 587.882812 225.183594 L 586.371094 225.21875 C 586.40625 225.21875 586.40625 225.21875 586.371094 225.21875 Z M 592.738281 225.078125 C 592.070312 225.078125 591.542969 224.550781 591.507812 223.882812 C 591.507812 223.214844 592.035156 222.652344 592.703125 222.652344 L 594.183594 222.617188 C 594.183594 222.617188 594.183594 222.617188 594.21875 222.617188 C 594.886719 222.617188 595.414062 223.144531 595.449219 223.8125 C 595.449219 224.480469 594.921875 225.042969 594.253906 225.042969 Z M 599.074219 224.9375 C 598.40625 224.9375 597.878906 224.410156 597.84375 223.742188 C 597.84375 223.074219 598.371094 222.511719 599.039062 222.511719 L 600.515625 222.476562 C 600.515625 222.476562 600.515625 222.476562 600.550781 222.476562 C 601.21875 222.476562 601.75 223.003906 601.785156 223.671875 C 601.785156 224.339844 601.253906 224.902344 600.585938 224.902344 L 599.074219 224.9375 C 599.109375 224.9375 599.109375 224.9375 599.074219 224.9375 Z M 605.441406 224.796875 C 604.773438 224.796875 604.246094 224.269531 604.210938 223.601562 C 604.210938 222.933594 604.738281 222.371094 605.40625 222.335938 L 606.886719 222.300781 C 607.554688 222.335938 608.117188 222.828125 608.152344 223.496094 C 608.152344 224.164062 607.625 224.726562 606.957031 224.761719 Z M 611.777344 224.691406 C 611.109375 224.691406 610.582031 224.164062 610.546875 223.496094 C 610.546875 222.828125 611.074219 222.265625 611.742188 222.230469 L 613.21875 222.195312 C 613.921875 222.195312 614.449219 222.722656 614.484375 223.390625 C 614.484375 224.058594 613.957031 224.621094 613.289062 224.65625 L 611.777344 224.691406 C 611.8125 224.691406 611.8125 224.691406 611.777344 224.691406 Z M 618.144531 224.550781 C 617.476562 224.550781 616.949219 224.023438 616.914062 223.355469 C 616.914062 222.6875 617.441406 222.125 618.109375 222.089844 L 619.589844 222.054688 C 620.328125 222.054688 620.820312 222.582031 620.855469 223.25 C 620.855469 223.917969 620.328125 224.480469 619.660156 224.515625 Z M 624.480469 224.410156 C 623.8125 224.410156 623.28125 223.882812 623.246094 223.214844 C 623.246094 222.546875 623.777344 221.984375 624.445312 221.984375 L 625.921875 221.949219 C 625.921875 221.949219 625.921875 221.949219 625.957031 221.949219 C 626.625 221.949219 627.152344 222.476562 627.1875 223.144531 C 627.1875 223.8125 626.660156 224.375 625.992188 224.375 L 624.480469 224.410156 C 624.515625 224.410156 624.515625 224.410156 624.480469 224.410156 Z M 630.847656 224.269531 C 630.179688 224.269531 629.652344 223.742188 629.617188 223.074219 C 629.617188 222.40625 630.144531 221.839844 630.8125 221.839844 L 632.289062 221.804688 C 632.289062 221.804688 632.289062 221.804688 632.328125 221.804688 C 632.996094 221.804688 633.523438 222.335938 633.558594 223.003906 C 633.558594 223.671875 633.03125 224.234375 632.363281 224.234375 Z M 695.558594 224.234375 C 695.347656 224.234375 695.101562 224.164062 694.925781 224.058594 C 694.574219 223.847656 694.222656 223.636719 693.835938 223.496094 C 693.199219 223.25 692.917969 222.546875 693.164062 221.914062 C 693.410156 221.277344 694.152344 220.996094 694.75 221.242188 C 695.277344 221.453125 695.769531 221.699219 696.261719 222.019531 C 696.824219 222.371094 697 223.144531 696.648438 223.707031 C 696.367188 224.023438 695.980469 224.234375 695.558594 224.234375 Z M 637.183594 224.128906 C 636.511719 224.128906 635.984375 223.601562 635.949219 222.933594 C 635.949219 222.265625 636.476562 221.699219 637.148438 221.699219 L 638.625 221.664062 C 638.625 221.664062 638.625 221.664062 638.660156 221.664062 C 639.328125 221.664062 639.855469 222.195312 639.890625 222.863281 C 639.890625 223.53125 639.363281 224.09375 638.695312 224.09375 L 637.183594 224.128906 C 637.21875 224.128906 637.183594 224.128906 637.183594 224.128906 Z M 643.550781 223.988281 C 642.882812 223.988281 642.355469 223.460938 642.320312 222.792969 C 642.320312 222.125 642.847656 221.558594 643.515625 221.558594 L 644.992188 221.523438 C 644.992188 221.523438 644.992188 221.523438 645.027344 221.523438 C 645.699219 221.523438 646.226562 222.054688 646.261719 222.722656 C 646.261719 223.390625 645.734375 223.953125 645.0625 223.953125 Z M 649.886719 223.847656 C 649.214844 223.847656 648.6875 223.320312 648.652344 222.652344 C 648.652344 221.984375 649.179688 221.417969 649.851562 221.382812 L 651.328125 221.347656 C 652.101562 221.347656 652.558594 221.878906 652.59375 222.546875 C 652.59375 223.214844 652.066406 223.777344 651.398438 223.8125 L 649.886719 223.847656 C 649.921875 223.847656 649.886719 223.847656 649.886719 223.847656 Z M 656.253906 223.707031 C 655.585938 223.707031 655.058594 223.179688 655.023438 222.511719 C 655.023438 221.839844 655.550781 221.277344 656.21875 221.242188 L 657.695312 221.207031 C 658.503906 221.171875 658.929688 221.734375 658.964844 222.40625 C 658.964844 223.074219 658.433594 223.636719 657.765625 223.671875 Z M 662.585938 223.566406 C 661.917969 223.566406 661.390625 223.039062 661.355469 222.371094 C 661.355469 221.699219 661.882812 221.136719 662.550781 221.101562 L 664.03125 221.066406 C 664.699219 221.171875 665.261719 221.59375 665.296875 222.265625 C 665.296875 222.933594 664.769531 223.496094 664.101562 223.53125 L 662.585938 223.566406 C 662.621094 223.566406 662.621094 223.566406 662.585938 223.566406 Z M 668.957031 223.425781 C 668.289062 223.425781 667.761719 222.898438 667.726562 222.230469 C 667.726562 221.558594 668.253906 220.996094 668.921875 220.996094 L 670.398438 220.960938 C 670.398438 220.960938 670.398438 220.960938 670.433594 220.960938 C 671.101562 220.960938 671.628906 221.488281 671.664062 222.160156 C 671.664062 222.828125 671.136719 223.390625 670.46875 223.390625 Z M 675.289062 223.285156 C 674.621094 223.285156 674.09375 222.757812 674.058594 222.089844 C 674.058594 221.417969 674.585938 220.855469 675.253906 220.855469 L 676.734375 220.820312 C 676.734375 220.820312 676.734375 220.820312 676.769531 220.820312 C 677.4375 220.820312 677.964844 221.347656 678 222.019531 C 678 222.6875 677.472656 223.25 676.804688 223.25 L 675.289062 223.285156 C 675.324219 223.285156 675.289062 223.285156 675.289062 223.285156 Z M 681.660156 223.144531 C 680.992188 223.144531 680.464844 222.617188 680.429688 221.949219 C 680.429688 221.277344 680.957031 220.714844 681.625 220.714844 L 683.101562 220.679688 C 683.101562 220.679688 683.101562 220.679688 683.136719 220.679688 C 683.804688 220.679688 684.332031 221.207031 684.367188 221.878906 C 684.367188 222.546875 683.839844 223.109375 683.171875 223.109375 Z M 687.992188 223.003906 C 687.324219 223.003906 686.796875 222.476562 686.761719 221.804688 C 686.761719 221.136719 687.289062 220.574219 687.957031 220.574219 L 689.4375 220.539062 C 689.4375 220.539062 689.4375 220.539062 689.472656 220.539062 C 690.140625 220.539062 690.667969 221.066406 690.703125 221.734375 C 690.703125 222.40625 690.175781 222.96875 689.507812 222.96875 L 687.992188 223.003906 C 688.027344 223.003906 687.992188 223.003906 687.992188 223.003906 Z M 687.992188 223.003906 " fill-opacity="1" fill-rule="nonzero"/><path fill="#334d5c" d="M 527.714844 263.050781 C 527.679688 263.050781 527.609375 263.050781 527.574219 263.050781 C 526.902344 262.945312 526.445312 262.347656 526.515625 261.675781 L 526.621094 260.9375 C 526.691406 260.269531 527.328125 259.777344 527.996094 259.882812 C 528.664062 259.988281 529.121094 260.585938 529.050781 261.253906 L 528.945312 261.996094 C 528.839844 262.59375 528.3125 263.050781 527.714844 263.050781 Z M 527.714844 263.050781 " fill-opacity="1" fill-rule="nonzero"/><path fill="#334d5c" d="M 764.984375 384.070312 L 611.390625 355.425781 L 621.734375 263.964844 L 782.191406 263.964844 Z M 764.984375 384.070312 " fill-opacity="1" fill-rule="nonzero"/><path fill="#a6a6a6" d="M 780.042969 278.851562 L 620.433594 275.296875 L 621.734375 263.964844 L 782.191406 263.964844 Z M 780.042969 278.851562 " fill-opacity="1" fill-rule="nonzero"/><path fill="#ffffff" d="M 631.269531 273.394531 L 623.671875 273.253906 L 624.445312 266.429688 L 632.078125 266.464844 Z M 631.269531 273.394531 " fill-opacity="1" fill-rule="nonzero"/><path fill="#ffffff" d="M 743.308594 275.402344 L 646.226562 273.640625 L 647.105469 266.535156 L 744.46875 266.992188 Z M 743.308594 275.402344 " fill-opacity="1" fill-rule="nonzero"/><path fill="#000000" d="M 628.597656 271.636719 L 626.34375 269.804688 L 628.984375 268.046875 Z M 628.597656 271.636719 " fill-opacity="1" fill-rule="nonzero"/><path fill="#ffffff" d="M 634.542969 273.429688 L 642.144531 273.570312 L 642.988281 266.5 L 635.351562 266.464844 Z M 634.542969 273.429688 " fill-opacity="1" fill-rule="nonzero"/><path fill="#000000" d="M 637.640625 271.777344 L 640.3125 269.984375 L 638.0625 268.117188 Z M 637.640625 271.777344 " fill-opacity="1" fill-rule="nonzero"/><path fill="#fb392e" d="M 756.539062 271.214844 C 756.257812 273.253906 754.566406 274.875 752.773438 274.875 C 750.980469 274.839844 749.710938 273.183594 749.992188 271.144531 C 750.273438 269.136719 751.964844 267.484375 753.792969 267.484375 C 755.625 267.519531 756.820312 269.171875 756.539062 271.214844 Z M 756.539062 271.214844 " fill-opacity="1" fill-rule="nonzero"/><path fill="#fecb15" d="M 766.777344 271.320312 C 766.496094 273.394531 764.773438 275.050781 762.976562 275.015625 C 761.183594 274.980469 759.953125 273.289062 760.234375 271.25 C 760.515625 269.207031 762.203125 267.519531 764.035156 267.554688 C 765.828125 267.554688 767.058594 269.242188 766.777344 271.320312 Z M 766.777344 271.320312 " fill-opacity="1" fill-rule="nonzero"/><path fill="#26a659" d="M 776.949219 271.460938 C 776.632812 273.570312 774.941406 275.261719 773.148438 275.226562 C 771.316406 275.191406 770.121094 273.464844 770.402344 271.390625 C 770.683594 269.3125 772.410156 267.625 774.238281 267.625 C 776.03125 267.625 777.265625 269.347656 776.949219 271.460938 Z M 776.949219 271.460938 " fill-opacity="1" fill-rule="nonzero"/><path fill="#e0e0e0" d="M 630.109375 353.136719 L 628.386719 352.855469 L 636.761719 281.171875 L 638.554688 281.207031 Z M 630.109375 353.136719 " fill-opacity="1" fill-rule="nonzero"/><path fill="#e0e0e0" d="M 631.972656 285.957031 L 628.984375 285.851562 L 629.300781 283.109375 L 632.292969 283.214844 Z M 631.972656 285.957031 " fill-opacity="1" fill-rule="nonzero"/><path fill="#e0e0e0" d="M 631.269531 291.976562 L 628.316406 291.835938 L 628.632812 289.089844 L 631.585938 289.230469 Z M 631.269531 291.976562 " fill-opacity="1" fill-rule="nonzero"/><path fill="#e0e0e0" d="M 630.566406 298.03125 L 627.609375 297.816406 L 627.929688 295.074219 L 630.882812 295.25 Z M 630.566406 298.03125 " fill-opacity="1" fill-rule="nonzero"/><path fill="#e0e0e0" d="M 629.863281 304.046875 L 626.90625 303.800781 L 627.222656 301.054688 L 630.179688 301.265625 Z M 629.863281 304.046875 " fill-opacity="1" fill-rule="nonzero"/><path fill="#e0e0e0" d="M 629.195312 310.066406 L 626.238281 309.78125 L 626.554688 307.074219 L 629.511719 307.320312 Z M 629.195312 310.066406 " fill-opacity="1" fill-rule="nonzero"/><path fill="#e0e0e0" d="M 628.492188 316.082031 L 625.535156 315.765625 L 625.851562 313.054688 L 628.808594 313.335938 Z M 628.492188 316.082031 " fill-opacity="1" fill-rule="nonzero"/><path fill="#e0e0e0" d="M 627.785156 322.101562 L 624.867188 321.746094 L 625.183594 319.039062 L 628.105469 319.355469 Z M 627.785156 322.101562 " fill-opacity="1" fill-rule="nonzero"/><path fill="#e0e0e0" d="M 627.082031 328.117188 L 624.164062 327.730469 L 624.480469 325.019531 L 627.398438 325.371094 Z M 627.082031 328.117188 " fill-opacity="1" fill-rule="nonzero"/><path fill="#e0e0e0" d="M 626.378906 334.136719 L 623.496094 333.746094 L 623.777344 331.003906 L 626.695312 331.390625 Z M 626.378906 334.136719 " fill-opacity="1" fill-rule="nonzero"/><path fill="#e0e0e0" d="M 625.675781 340.152344 L 622.789062 339.730469 L 623.105469 336.984375 L 625.992188 337.40625 Z M 625.675781 340.152344 " fill-opacity="1" fill-rule="nonzero"/><path fill="#e0e0e0" d="M 625.007812 346.171875 L 622.085938 345.710938 L 622.402344 342.96875 L 625.324219 343.425781 Z M 625.007812 346.171875 " fill-opacity="1" fill-rule="nonzero"/><path fill="#ffffff" d="M 645.664062 282.96875 L 643.234375 285.078125 C 643.058594 285.21875 643.023438 285.464844 643.164062 285.605469 L 644.992188 287.71875 C 645.132812 287.894531 645.382812 287.894531 645.59375 287.753906 C 645.699219 287.683594 645.734375 287.578125 645.769531 287.472656 C 645.769531 287.367188 645.734375 287.261719 645.664062 287.191406 C 645.664062 287.191406 644.429688 285.746094 644.078125 285.324219 C 644.535156 284.9375 646.191406 283.496094 646.191406 283.496094 C 646.261719 283.425781 646.332031 283.320312 646.332031 283.214844 C 646.332031 283.109375 646.296875 283.003906 646.226562 282.898438 C 646.085938 282.792969 645.839844 282.792969 645.664062 282.96875 Z M 645.664062 282.96875 " fill-opacity="1" fill-rule="nonzero"/><path fill="#ffffff" d="M 655.902344 283.285156 C 655.796875 283.355469 655.761719 283.460938 655.726562 283.566406 C 655.726562 283.671875 655.726562 283.777344 655.796875 283.847656 C 655.796875 283.847656 657.097656 285.429688 657.449219 285.851562 C 656.992188 286.242188 655.410156 287.578125 655.410156 287.578125 C 655.339844 287.648438 655.269531 287.753906 655.269531 287.859375 C 655.269531 287.964844 655.269531 288.070312 655.375 288.140625 C 655.515625 288.28125 655.796875 288.316406 655.972656 288.140625 L 658.328125 286.136719 C 658.507812 285.996094 658.542969 285.746094 658.398438 285.570312 L 656.5 283.25 C 656.359375 283.179688 656.078125 283.144531 655.902344 283.285156 Z M 655.902344 283.285156 " fill-opacity="1" fill-rule="nonzero"/><path fill="#ffffff" d="M 652.488281 283.390625 L 647.984375 287.15625 C 647.808594 287.296875 647.773438 287.542969 647.914062 287.71875 C 648.054688 287.894531 648.335938 287.894531 648.511719 287.71875 L 653.015625 283.988281 C 653.191406 283.847656 653.226562 283.566406 653.085938 283.425781 C 652.945312 283.25 652.664062 283.25 652.488281 283.390625 Z M 652.488281 283.390625 " fill-opacity="1" fill-rule="nonzero"/><path fill="#ffffff" d="M 637.710938 349.757812 L 635.351562 351.589844 C 635.175781 351.730469 635.175781 351.976562 635.28125 352.152344 L 637.078125 354.546875 C 637.21875 354.722656 637.464844 354.792969 637.640625 354.652344 C 637.746094 354.582031 637.78125 354.476562 637.816406 354.371094 C 637.816406 354.265625 637.816406 354.160156 637.746094 354.085938 C 637.746094 354.085938 636.546875 352.46875 636.195312 352.011719 C 636.65625 351.660156 638.273438 350.429688 638.273438 350.429688 C 638.34375 350.359375 638.414062 350.253906 638.414062 350.183594 C 638.414062 350.074219 638.378906 349.96875 638.308594 349.863281 C 638.132812 349.652344 637.886719 349.617188 637.710938 349.757812 Z M 637.710938 349.757812 " fill-opacity="1" fill-rule="nonzero"/><path fill="#ffffff" d="M 647.632812 351.378906 C 647.527344 351.449219 647.492188 351.554688 647.457031 351.660156 C 647.457031 351.765625 647.457031 351.871094 647.527344 351.941406 C 647.527344 351.941406 648.792969 353.699219 649.144531 354.195312 C 648.6875 354.546875 647.175781 355.707031 647.175781 355.707031 C 647.105469 355.777344 647.035156 355.847656 647.035156 355.953125 C 647.035156 356.058594 647.035156 356.164062 647.140625 356.269531 C 647.28125 356.445312 647.527344 356.480469 647.703125 356.339844 L 649.992188 354.617188 C 650.167969 354.476562 650.203125 354.230469 650.0625 354.050781 L 648.230469 351.484375 C 648.089844 351.308594 647.808594 351.273438 647.632812 351.378906 Z M 647.632812 351.378906 " fill-opacity="1" fill-rule="nonzero"/><path fill="#ffffff" d="M 644.324219 351.0625 L 639.960938 354.300781 C 639.785156 354.441406 639.75 354.6875 639.890625 354.863281 C 640.03125 355.039062 640.277344 355.074219 640.453125 354.96875 L 644.816406 351.730469 C 644.992188 351.589844 645.027344 351.34375 644.886719 351.167969 C 644.78125 350.992188 644.535156 350.957031 644.324219 351.0625 Z M 644.324219 351.0625 " fill-opacity="1" fill-rule="nonzero"/><path fill="#e29616" d="M 652.769531 292.398438 L 639.222656 291.695312 L 639.539062 289.160156 L 653.085938 289.828125 Z M 652.769531 292.398438 " fill-opacity="1" fill-rule="nonzero"/><path fill="#f19b0f" d="M 650.273438 326.851562 L 635.316406 325.089844 L 635.597656 322.558594 L 650.589844 324.246094 Z M 650.273438 326.851562 " fill-opacity="1" fill-rule="nonzero"/><path fill="#f19b0f" d="M 642.777344 349.054688 L 632.679688 347.402344 L 632.960938 344.902344 L 643.058594 346.488281 Z M 642.777344 349.054688 " fill-opacity="1" fill-rule="nonzero"/><path fill="#17bb99" d="M 663.46875 298.839844 L 641.898438 297.464844 L 642.214844 294.933594 L 663.820312 296.199219 Z M 663.46875 298.839844 " fill-opacity="1" fill-rule="nonzero"/><path fill="#fbdd82" d="M 657.34375 333.675781 L 637.921875 331.179688 L 638.203125 328.644531 L 657.695312 331.074219 Z M 657.34375 333.675781 " fill-opacity="1" fill-rule="nonzero"/><path fill="#89c0c8" d="M 656.289062 339.238281 L 637.289062 336.5625 L 637.570312 334.0625 L 656.640625 336.632812 Z M 656.289062 339.238281 " fill-opacity="1" fill-rule="nonzero"/><path fill="#17bb99" d="M 646.789062 343.742188 L 636.617188 342.195312 L 636.902344 339.660156 L 647.105469 341.171875 Z M 646.789062 343.742188 " fill-opacity="1" fill-rule="nonzero"/><path fill="#fbdd82" d="M 692.496094 350.640625 L 649.214844 344.09375 L 649.496094 341.523438 L 692.847656 347.859375 Z M 692.496094 350.640625 " fill-opacity="1" fill-rule="nonzero"/><path fill="#fbdd82" d="M 690.105469 343.953125 L 658.542969 339.554688 L 658.859375 336.914062 L 690.457031 341.171875 Z M 690.105469 343.953125 " fill-opacity="1" fill-rule="nonzero"/><path fill="#e29616" d="M 702.703125 345.746094 L 692.53125 344.304688 L 692.882812 341.523438 L 703.089844 342.898438 Z M 702.703125 345.746094 " fill-opacity="1" fill-rule="nonzero"/><path fill="#89c0c8" d="M 728.421875 342.863281 L 708.085938 340.257812 L 708.472656 337.371094 L 728.8125 339.90625 Z M 728.421875 342.863281 " fill-opacity="1" fill-rule="nonzero"/><path fill="#17bb99" d="M 705.550781 339.90625 L 659.421875 333.957031 L 659.738281 331.320312 L 705.902344 337.054688 Z M 705.550781 339.90625 " fill-opacity="1" fill-rule="nonzero"/><path fill="#fbdd82" d="M 678.070312 299.753906 L 665.71875 298.980469 L 666.035156 296.339844 L 678.421875 297.078125 Z M 678.070312 299.753906 " fill-opacity="1" fill-rule="nonzero"/><path fill="#fbdd82" d="M 654.742188 310.066406 L 640.558594 308.832031 L 640.875 306.335938 L 655.058594 307.460938 Z M 654.742188 310.066406 " fill-opacity="1" fill-rule="nonzero"/><path fill="#17bb99" d="M 680.109375 312.210938 L 657.0625 310.277344 L 657.378906 307.636719 L 680.429688 309.5 Z M 680.109375 312.210938 " fill-opacity="1" fill-rule="nonzero"/><path fill="#89c0c8" d="M 702.492188 301.300781 L 680.320312 299.894531 L 680.675781 297.183594 L 702.84375 298.488281 Z M 702.492188 301.300781 " fill-opacity="1" fill-rule="nonzero"/><path fill="#89c0c8" d="M 665.753906 305.066406 L 641.230469 303.238281 L 641.546875 300.703125 L 666.070312 302.429688 Z M 665.753906 305.066406 " fill-opacity="1" fill-rule="nonzero"/><path fill="#e29616" d="M 692.25 307.039062 L 668.289062 305.242188 L 668.605469 302.605469 L 692.601562 304.257812 Z M 692.25 307.039062 " fill-opacity="1" fill-rule="nonzero"/><path fill="#17bb99" d="M 711.394531 308.445312 L 694.644531 307.214844 L 694.996094 304.433594 L 711.78125 305.59375 Z M 711.394531 308.445312 " fill-opacity="1" fill-rule="nonzero"/><path fill="#89c0c8" d="M 668.816406 317.242188 L 639.890625 314.464844 L 640.207031 311.929688 L 669.132812 314.570312 Z M 668.816406 317.242188 " fill-opacity="1" fill-rule="nonzero"/><path fill="#fbdd82" d="M 686.445312 318.933594 L 671.03125 317.453125 L 671.347656 314.78125 L 686.796875 316.1875 Z M 686.445312 318.933594 " fill-opacity="1" fill-rule="nonzero"/><path fill="#17bb99" d="M 668.113281 322.875 L 639.257812 319.8125 L 639.574219 317.277344 L 668.429688 320.199219 Z M 668.113281 322.875 " fill-opacity="1" fill-rule="nonzero"/><path fill="#89c0c8" d="M 697.035156 325.96875 L 670.328125 323.121094 L 670.644531 320.445312 L 697.421875 323.15625 Z M 697.035156 325.96875 " fill-opacity="1" fill-rule="nonzero"/><path fill="#17bb99" d="M 718.921875 322.0625 L 689.011719 319.179688 L 689.367188 316.433594 L 719.308594 319.179688 Z M 718.921875 322.0625 " fill-opacity="1" fill-rule="nonzero"/><path fill="#17bb99" d="M 662.339844 292.890625 L 655.375 292.539062 L 655.691406 289.933594 L 662.65625 290.289062 Z M 662.339844 292.890625 " fill-opacity="1" fill-rule="nonzero"/><path fill="#334d5c" d="M 709.351562 265.6875 C 709.28125 265.6875 709.210938 265.6875 709.140625 265.652344 C 708.472656 265.546875 708.050781 264.878906 708.15625 264.246094 L 708.296875 263.542969 C 708.4375 262.875 709.035156 262.417969 709.738281 262.558594 C 710.40625 262.664062 710.828125 263.332031 710.722656 263.964844 L 710.582031 264.667969 C 710.441406 265.265625 709.914062 265.6875 709.351562 265.6875 Z M 709.351562 265.6875 " fill-opacity="1" fill-rule="nonzero"/><path fill="#334d5c" d="M 710.335938 260.269531 C 710.265625 260.269531 710.195312 260.269531 710.125 260.234375 C 709.457031 260.128906 709.035156 259.460938 709.140625 258.828125 L 709.386719 257.417969 C 709.527344 256.75 710.160156 256.328125 710.792969 256.433594 C 711.464844 256.539062 711.886719 257.207031 711.78125 257.839844 L 711.535156 259.25 C 711.429688 259.882812 710.933594 260.269531 710.335938 260.269531 Z M 711.464844 254.183594 C 711.394531 254.183594 711.324219 254.183594 711.253906 254.148438 C 710.582031 254.042969 710.160156 253.371094 710.265625 252.738281 L 710.511719 251.332031 C 710.652344 250.664062 711.289062 250.242188 711.921875 250.347656 C 712.589844 250.453125 713.011719 251.121094 712.90625 251.753906 L 712.660156 253.160156 C 712.554688 253.792969 712.027344 254.183594 711.464844 254.183594 Z M 712.589844 248.09375 C 712.519531 248.09375 712.449219 248.09375 712.378906 248.058594 C 711.710938 247.953125 711.289062 247.285156 711.394531 246.652344 L 711.640625 245.242188 C 711.78125 244.574219 712.414062 244.152344 713.046875 244.257812 C 713.714844 244.363281 714.136719 245.03125 714.03125 245.664062 L 713.785156 247.074219 C 713.679688 247.671875 713.152344 248.09375 712.589844 248.09375 Z M 713.714844 242.007812 C 713.644531 242.007812 713.574219 242.007812 713.503906 241.972656 C 712.835938 241.863281 712.414062 241.195312 712.519531 240.5625 L 712.765625 239.15625 C 712.90625 238.488281 713.539062 238.03125 714.171875 238.171875 C 714.839844 238.277344 715.261719 238.945312 715.15625 239.578125 L 714.910156 240.984375 C 714.804688 241.582031 714.277344 242.007812 713.714844 242.007812 Z M 714.804688 235.917969 C 714.734375 235.917969 714.664062 235.917969 714.59375 235.882812 C 713.925781 235.777344 713.503906 235.109375 713.609375 234.476562 L 713.855469 233.066406 C 713.996094 232.398438 714.628906 231.976562 715.261719 232.082031 C 715.933594 232.1875 716.355469 232.855469 716.25 233.488281 L 716.003906 234.898438 C 715.898438 235.496094 715.40625 235.917969 714.804688 235.917969 Z M 715.933594 229.828125 C 715.863281 229.828125 715.792969 229.828125 715.722656 229.792969 C 715.050781 229.6875 714.628906 229.019531 714.734375 228.386719 L 714.980469 226.980469 C 715.085938 226.3125 715.757812 225.886719 716.390625 225.996094 C 717.058594 226.101562 717.480469 226.769531 717.375 227.402344 L 717.128906 228.808594 C 717.023438 229.40625 716.53125 229.828125 715.933594 229.828125 Z M 717.058594 223.742188 C 716.988281 223.742188 716.917969 223.742188 716.847656 223.707031 C 716.179688 223.601562 715.757812 222.933594 715.863281 222.300781 L 716.109375 220.890625 C 716.25 220.222656 716.882812 219.800781 717.515625 219.90625 C 718.183594 220.011719 718.605469 220.679688 718.5 221.3125 L 718.253906 222.722656 C 718.148438 223.320312 717.621094 223.742188 717.058594 223.742188 Z M 718.183594 217.652344 C 718.113281 217.652344 718.042969 217.652344 717.972656 217.617188 C 717.304688 217.511719 716.882812 216.84375 716.988281 216.210938 L 717.234375 214.804688 C 717.375 214.136719 718.007812 213.710938 718.640625 213.816406 C 719.308594 213.925781 719.734375 214.59375 719.625 215.226562 L 719.378906 216.632812 C 719.273438 217.230469 718.746094 217.652344 718.183594 217.652344 Z M 719.769531 211.671875 C 719.589844 211.671875 719.378906 211.636719 719.203125 211.53125 C 718.605469 211.214844 718.359375 210.511719 718.675781 209.878906 C 718.921875 209.382812 719.203125 208.925781 719.484375 208.503906 C 719.875 207.941406 720.613281 207.800781 721.175781 208.1875 C 721.738281 208.574219 721.878906 209.3125 721.492188 209.878906 C 721.246094 210.230469 721.035156 210.582031 720.859375 210.96875 C 720.648438 211.425781 720.191406 211.671875 719.769531 211.671875 Z M 723.847656 207.097656 C 723.460938 207.097656 723.074219 206.921875 722.828125 206.535156 C 722.441406 205.972656 722.617188 205.195312 723.179688 204.84375 C 723.601562 204.5625 724.058594 204.28125 724.554688 204.070312 C 725.152344 203.789062 725.890625 204 726.171875 204.632812 C 726.488281 205.230469 726.242188 205.972656 725.609375 206.289062 C 725.222656 206.464844 724.871094 206.710938 724.519531 206.921875 C 724.308594 207.027344 724.058594 207.097656 723.847656 207.097656 Z M 729.621094 205.160156 C 728.988281 205.160156 728.457031 204.667969 728.386719 204.035156 C 728.351562 203.367188 728.847656 202.769531 729.515625 202.734375 L 730.957031 202.628906 C 731.589844 202.558594 732.222656 203.085938 732.257812 203.753906 C 732.292969 204.421875 731.800781 205.019531 731.132812 205.054688 L 729.691406 205.160156 C 729.691406 205.160156 729.65625 205.160156 729.621094 205.160156 Z M 735.8125 204.703125 C 735.179688 204.703125 734.652344 204.210938 734.582031 203.578125 C 734.546875 202.910156 735.039062 202.3125 735.707031 202.277344 L 737.148438 202.171875 C 737.925781 202.101562 738.417969 202.628906 738.453125 203.296875 C 738.488281 203.964844 737.996094 204.5625 737.328125 204.597656 L 735.882812 204.703125 C 735.882812 204.703125 735.847656 204.703125 735.8125 204.703125 Z M 735.8125 204.703125 " fill-opacity="1" fill-rule="nonzero"/><path fill="#334d5c" d="M 742.007812 204.246094 C 741.371094 204.246094 740.84375 203.753906 740.773438 203.121094 C 740.738281 202.453125 741.230469 201.855469 741.902344 201.816406 L 742.640625 201.746094 C 743.308594 201.640625 743.90625 202.207031 743.941406 202.875 C 743.976562 203.542969 743.484375 204.140625 742.816406 204.175781 L 742.078125 204.210938 C 742.078125 204.246094 742.042969 204.246094 742.007812 204.246094 Z M 742.007812 204.246094 " fill-opacity="1" fill-rule="nonzero"/><path fill="#f15281" d="M 705.972656 181.546875 C 703.898438 192.949219 692.917969 202.242188 681.484375 202.242188 C 670.046875 202.242188 662.480469 192.984375 664.558594 181.546875 C 666.667969 170.113281 677.613281 160.855469 689.046875 160.855469 C 700.484375 160.820312 708.050781 170.113281 705.972656 181.546875 Z M 705.972656 181.546875 " fill-opacity="1" fill-rule="nonzero"/><path fill="#ffffff" d="M 691.335938 175.109375 C 691.335938 175.109375 685.390625 181.230469 682.75 183.941406 C 681.695312 182.570312 680.5 181.054688 680.5 181.054688 C 679.792969 180.140625 678.351562 180.105469 677.261719 180.984375 C 676.171875 181.867188 675.886719 183.308594 676.59375 184.222656 L 680.320312 189.007812 C 680.710938 189.5 681.308594 189.746094 681.976562 189.710938 C 682.644531 189.675781 683.3125 189.359375 683.839844 188.832031 L 694.46875 177.925781 C 695.453125 176.9375 695.523438 175.496094 694.679688 174.6875 C 693.800781 173.949219 692.320312 174.089844 691.335938 175.109375 Z M 691.335938 175.109375 " fill-opacity="1" fill-rule="nonzero"/><path fill="#4581c5" d="M 481.792969 196.609375 L 556.953125 193.371094 C 556.953125 193.371094 567.195312 177.855469 559.136719 169.195312 C 550.832031 161.136719 540.167969 168.667969 540.167969 168.667969 C 540.167969 168.667969 536.933594 149.207031 517.261719 154.417969 C 497.910156 159.554688 498.71875 175.074219 498.753906 178.910156 C 498.753906 178.910156 487.667969 177.394531 483.128906 184.046875 C 478.765625 190.453125 481.792969 196.609375 481.792969 196.609375 Z M 481.792969 196.609375 " fill-opacity="1" fill-rule="nonzero"/><g mask="url(#e6bcb8ce5a)"><g transform="matrix(1, 0, 0, 1, 573, 44)"><g clip-path="url(#2d910810ff)"><path fill="#b7c6ce" d="M 93.386719 47.390625 C 93.386719 72.480469 73.050781 92.820312 47.960938 92.820312 C 22.871094 92.820312 2.535156 72.480469 2.535156 47.390625 C 2.535156 22.300781 22.871094 1.960938 47.960938 1.960938 C 73.050781 1.960938 93.386719 22.300781 93.386719 47.390625 Z M 93.386719 47.390625 " fill-opacity="1" fill-rule="nonzero"/><path fill="#aab5ba" d="M 83.851562 47.390625 C 83.851562 67.203125 67.769531 83.285156 47.960938 83.285156 C 28.148438 83.285156 12.070312 67.203125 12.070312 47.390625 C 12.070312 27.578125 28.148438 11.496094 47.960938 11.496094 C 67.769531 11.496094 83.851562 27.578125 83.851562 47.390625 Z M 83.851562 47.390625 " fill-opacity="1" fill-rule="nonzero"/><path fill="#fafafa" d="M 79.980469 47.390625 C 79.980469 65.089844 65.660156 79.414062 47.960938 79.414062 C 30.261719 79.414062 15.941406 65.089844 15.941406 47.390625 C 15.941406 29.691406 30.261719 15.367188 47.960938 15.367188 C 65.660156 15.367188 79.980469 29.691406 79.980469 47.390625 Z M 79.980469 47.390625 " fill-opacity="1" fill-rule="nonzero"/><path fill="#d1bdd1" d="M 35.398438 9.101562 C 35.714844 10.6875 34.660156 12.199219 33.148438 12.691406 C 30.015625 13.75 27.09375 15.4375 24.632812 17.621094 C 23.433594 18.675781 21.605469 18.816406 20.410156 17.761719 C 19.210938 16.738281 19.316406 14.628906 20.832031 13.289062 C 23.890625 10.617188 27.445312 8.574219 31.316406 7.273438 C 33.21875 6.570312 35.117188 7.554688 35.398438 9.101562 Z M 35.398438 9.101562 " fill-opacity="0.1804" fill-rule="nonzero"/><path fill="#b7c6ce" d="M 71.042969 34.335938 L 47.222656 46.230469 C 46.484375 46.582031 46.203125 47.460938 46.554688 48.199219 C 46.90625 48.902344 47.785156 49.21875 48.523438 48.867188 L 72.34375 36.972656 C 73.085938 36.621094 73.367188 35.742188 73.015625 35.039062 C 72.664062 34.265625 71.78125 33.949219 71.042969 34.335938 Z M 71.042969 34.335938 " fill-opacity="1" fill-rule="nonzero"/><path fill="#b7c6ce" d="M 46.589844 29.796875 L 46.484375 46.476562 C 46.484375 47.285156 47.117188 47.953125 47.925781 47.953125 C 48.734375 47.953125 49.402344 47.320312 49.402344 46.511719 L 49.507812 29.832031 C 49.507812 29.019531 48.875 28.351562 48.066406 28.351562 C 47.257812 28.351562 46.589844 28.984375 46.589844 29.796875 Z M 46.589844 29.796875 " fill-opacity="1" fill-rule="nonzero"/><path fill="#aab5ba" d="M 45.742188 42.921875 C 43.28125 44.152344 42.261719 47.144531 43.492188 49.605469 C 44.722656 52.070312 47.714844 53.089844 50.175781 51.859375 C 52.640625 50.628906 53.660156 47.636719 52.429688 45.171875 C 51.234375 42.710938 48.207031 41.691406 45.742188 42.921875 Z M 45.742188 42.921875 " fill-opacity="1" fill-rule="nonzero"/><path fill="#b7c6ce" d="M 46.765625 44.996094 C 48.101562 44.328125 49.683594 44.890625 50.351562 46.195312 C 51.023438 47.53125 50.457031 49.113281 49.121094 49.785156 C 47.785156 50.453125 46.203125 49.890625 45.53125 48.585938 C 44.898438 47.25 45.460938 45.628906 46.765625 44.996094 Z M 46.765625 44.996094 " fill-opacity="1" fill-rule="nonzero"/></g></g></g><g mask="url(#87e8bede3d)"><g transform="matrix(1, 0, 0, 1, 358, 26)"><g clip-path="url(#78847c8c4a)"><path fill="#b7c6ce" d="M 137.761719 95.230469 C 137.761719 95.089844 137.796875 94.949219 137.796875 94.808594 C 137.796875 62.46875 107.464844 36.253906 70.027344 36.253906 C 32.585938 36.253906 2.253906 62.46875 2.253906 94.808594 C 2.253906 94.949219 2.289062 95.089844 2.289062 95.230469 Z M 137.761719 95.230469 " fill-opacity="1" fill-rule="nonzero"/><g clip-path="url(#0dad0f8099)"><path fill="#b7c6ce" d="M 54.261719 97.484375 C 54.261719 97.519531 54.261719 97.589844 54.261719 97.589844 C 54.261719 106.316406 61.335938 113.390625 70.027344 113.390625 C 78.753906 113.390625 85.824219 106.316406 85.824219 97.589844 C 85.824219 97.554688 85.824219 97.519531 85.824219 97.484375 Z M 54.261719 97.484375 " fill-opacity="1" fill-rule="nonzero"/></g><path fill="#b7c6ce" d="M 71.292969 1.589844 L 71.292969 41.355469 L 68.761719 41.355469 L 68.761719 2.433594 C 69.21875 2.292969 69.675781 2.117188 70.132812 1.976562 C 70.519531 1.835938 70.871094 1.695312 71.292969 1.589844 Z M 71.292969 1.589844 " fill-opacity="1" fill-rule="nonzero"/></g></g></g></svg>